<?xml version="1.0" encoding="UTF-8" standalone="no"?>
<!-- Created with Inkscape (http://www.inkscape.org/) -->

<svg
   width="210mm"
   height="297mm"
   viewBox="0 0 210 297"
   version="1.1"
   id="svg1"
   inkscape:version="1.3.2 (091e20ef0f, 2023-11-25)"
   sodipodi:docname="ArtsyInkscape.svg"
   xmlns:inkscape="http://www.inkscape.org/namespaces/inkscape"
   xmlns:sodipodi="http://sodipodi.sourceforge.net/DTD/sodipodi-0.dtd"
   xmlns="http://www.w3.org/2000/svg"
   xmlns:svg="http://www.w3.org/2000/svg">
  <sodipodi:namedview
     id="namedview1"
     pagecolor="#ffffff"
     bordercolor="#000000"
     borderopacity="0.25"
     inkscape:showpageshadow="2"
     inkscape:pageopacity="0.0"
     inkscape:pagecheckerboard="0"
     inkscape:deskcolor="#d1d1d1"
     inkscape:document-units="mm"
     inkscape:zoom="0.71669617"
     inkscape:cx="246.96658"
     inkscape:cy="553.23304"
     inkscape:window-width="1920"
     inkscape:window-height="1011"
     inkscape:window-x="0"
     inkscape:window-y="0"
     inkscape:window-maximized="1"
     inkscape:current-layer="layer3" />
  <defs
     id="defs1" />
  <g
     inkscape:groupmode="layer"
     id="layer2"
     inkscape:label="Background"
     sodipodi:insensitive="true">
    <rect
       style="fill:#666666;stroke-width:0.264583"
       id="rect3"
       width="211.41217"
       height="51.941853"
       x="-0.6225931"
       y="245.71677" />
    <rect
       style="fill:#00ffff;stroke-width:0.252888"
       id="rect1"
       width="209.57323"
       height="130.73735"
       x="0.18303086"
       y="0.25076666" />
    <ellipse
       style="fill:#ffff00;stroke-width:0.264583"
       id="path3"
       cx="98.819366"
       cy="124.06177"
       rx="28.993816"
       ry="28.407253" />
    <rect
       style="fill:#000080;stroke-width:0.26572"
       id="rect2"
       width="210.54314"
       height="115.15812"
       x="-0.50297457"
       y="131.15099" />
  </g>
  <g
     inkscape:groupmode="layer"
     id="layer3"
     inkscape:label="SunLines"
     style="opacity:0.49991231">
    <path
       style="fill:#ffff00;stroke-width:0.264583"
       id="path4"
       d="m 75.740711,133.93214 c 1.903492,0.21709 3.816665,0.31698 5.730423,0.3845 1.728189,0.0539 3.457403,0.0652 5.186315,0.0729 1.465937,0.002 2.931916,-2.7e-4 4.397838,-0.008 2.03999,-0.0865 4.06573,0.0906 6.096391,0.25354 2.370826,0.1679 4.725642,0.51963 7.076992,0.85966 2.22633,0.21988 4.4314,0.59465 6.64849,0.88674 0.78187,0.25079 1.65753,0.28661 2.39273,0.6751 1.62719,0.85982 -0.92838,-0.36617 0.9068,0.49549 1.20475,0.73414 2.54874,1.12687 3.87286,1.57169 0.68426,0.27423 1.4204,0.36477 2.1266,0.55364 0.53969,0.14434 1.06463,0.3561 1.60375,0.50762 0.94882,0.26716 1.4238,0.28223 2.30682,-0.12072 0.3101,-0.18544 0.43552,-0.40869 0.55731,-0.73237 0,0 -3.47834,-1.91303 -3.47834,-1.91303 v 0 c -0.0573,0.23641 -0.14273,0.33521 -0.37355,0.447 -0.71443,0.2745 -1.40971,0.14467 -2.12851,-0.0824 -1.22801,-0.3683 -2.46948,-0.67533 -3.69458,-1.05255 -1.3338,-0.43864 -2.64216,-0.92747 -3.86333,-1.63255 -0.15706,-0.0812 -0.75571,-0.39636 -0.93624,-0.46825 -0.7655,-0.30484 -1.6097,-0.3924 -2.40674,-0.57373 -2.20422,-0.28457 -4.40088,-0.62383 -6.61057,-0.8654 -2.35804,-0.34396 -4.721116,-0.68236 -7.099678,-0.84619 -2.046483,-0.16786 -4.090027,-0.32311 -6.145707,-0.25052 -1.470769,-0.006 -2.941564,-0.004 -4.41234,-0.003 -1.715384,0.001 -3.431056,-0.003 -5.145685,-0.0603 -1.926244,-0.0756 -3.858324,-0.16473 -5.763864,-0.47426 z" />
    <path
       style="fill:#ffff00;stroke-width:0.264583"
       id="path5"
       d="m 123.22098,132.52545 c -1.3463,1.03001 -2.75244,1.94727 -4.29624,2.65033 -1.82173,0.86294 -3.77125,1.40286 -5.67682,2.04332 -2.80463,0.91646 -5.55842,1.97372 -8.33959,2.95449 -2.49973,0.84334 -4.937958,1.8608 -7.445555,2.68055 -2.347608,0.47702 -4.580032,1.31858 -6.819365,2.14804 -2.946083,1.16234 -5.847921,2.43644 -8.872209,3.38581 -1.178767,0.58564 -2.555312,0.70325 -3.711324,1.32204 -0.431226,0.32602 -0.3824,0.86856 0.08858,1.15204 2.814613,1.69406 2.668725,1.60893 4.349898,2.44971 1.632445,0.59032 3.343328,0.94451 5.058725,1.19333 1.738987,0.21237 3.490423,0.2634 5.240223,0.28624 1.338146,0.10418 2.637393,-0.0582 3.952441,-0.27267 1.14522,-0.0998 2.244747,-0.43237 3.374406,-0.62724 1.08431,-0.38915 2.23645,-0.48862 3.34472,-0.76839 1.08615,-0.31189 2.20555,-0.44289 3.32926,-0.51575 1.21378,-0.014 2.40747,-0.0564 3.60815,-0.23673 1.19941,-0.1576 2.41345,-0.38995 3.62327,-0.25615 1.1128,0.19153 2.23226,0.31946 3.35886,0.3888 1.37618,0.23491 2.75304,0.40795 4.11768,0.70387 0.45233,0.0915 0.78698,0.13614 1.2133,0.30507 0.14969,0.0593 0.57066,0.29827 0.43078,0.21853 -1.01631,-0.57039 -2.03263,-1.14078 -3.04894,-1.71118 0.067,0.0717 0.15526,0.12823 0.20099,0.21503 0.0414,0.0786 0.0335,0.17449 0.0502,0.26173 -0.35548,1.21584 -1.65724,1.83681 -2.66783,2.44973 -1.87672,0.94656 -3.93314,1.42877 -5.99803,1.74619 -2.27297,0.27325 -4.5658,0.29582 -6.85208,0.30762 -1.79072,0.0387 -3.56991,0.002 -5.350681,-0.18288 -1.540245,-0.093 -3.04496,-0.35452 -4.556546,-0.64321 -1.142148,-0.21752 -2.312135,0.0169 -3.458297,0.11778 -1.121854,0.23212 -2.238711,0.47497 -3.286974,0.94635 -1.047959,0.41276 -1.938187,1.10277 -2.683807,1.93578 -0.612872,0.7672 -0.74142,1.57335 -0.411411,2.47876 0.457555,1.02822 1.334418,1.74393 2.199762,2.42162 2.057299,1.60751 4.371221,2.77667 6.646659,4.0483 0.999421,0.64846 1.560639,0.81834 2.724605,0.73323 1.015134,-0.0337 1.980438,-0.35803 2.97512,-0.53608 1.13306,-0.31231 2.26526,-0.60448 3.35122,-1.05935 1.09705,-0.40599 2.21756,-0.76689 3.35011,-1.06399 1.16339,-0.19635 2.24024,-0.6887 3.35942,-1.03816 1.12069,-0.23203 2.21398,-0.5679 3.34162,-0.77002 0.84253,-0.16056 1.70634,-0.10795 2.55481,-0.18822 0.21676,-0.0205 1.03492,-0.16635 1.25546,-0.20454 0.76944,-0.093 1.54652,-0.29521 2.32628,-0.29165 0.23815,0.001 0.87251,0.0972 1.10499,0.12944 1.16817,0.10356 2.27647,0.39546 3.31448,0.93965 1.44445,0.70835 1.27484,0.63882 -2.31194,-1.35086 -0.15971,-0.0886 0.313,0.18858 0.46473,0.29024 0.39311,0.26343 0.76022,0.56203 1.11988,0.86842 0.76695,0.68884 1.20097,1.62971 1.56164,2.57635 0.26425,1.08223 0.0581,2.15512 -0.29286,3.18841 -0.37502,1.26594 -1.1578,2.30716 -1.98957,3.30618 -0.85955,0.95694 -1.79759,1.8628 -2.86736,2.58309 -0.98942,0.5911 -2.03247,0.96282 -3.16665,1.14018 -1.39592,-0.007 -2.76756,-0.22647 -4.13383,-0.48489 -1.58837,-0.44361 -3.19901,-0.79328 -4.78009,-1.26467 -1.53667,-0.46497 -3.11306,-0.79589 -4.64483,-1.27405 -1.14556,-0.25499 -2.1926,-0.78389 -3.328432,-1.06657 -1.015304,-0.17825 -2.062718,-0.29693 -3.090169,-0.1773 -0.928089,0.0867 -1.765721,0.38662 -2.506067,0.95142 -0.665983,0.50108 -1.279821,1.08586 -1.836095,1.70728 -0.672933,0.53321 -0.999254,1.27695 -1.087127,2.11404 -0.02297,0.91196 0.324728,1.70415 0.782383,2.46958 1.378109,2.02401 3.217984,2.68239 5.451546,3.97472 0.97467,0.58395 2.072114,0.8063 3.184551,0.93705 1.12192,0.10021 2.24965,0.0939 3.37497,0.094 1.13378,-0.0162 2.24511,-0.30172 3.37155,-0.43362 1.15031,-0.0958 2.26856,-0.41516 3.36981,-0.74645 1.12372,-0.24896 2.21172,-0.61994 3.3421,-0.84172 1.10055,-0.18815 2.21911,-0.20971 3.33262,-0.22629 1.11431,-0.009 2.22867,-0.004 3.343,-0.002 0.71781,0.0541 1.45256,-0.0657 2.16885,0.004 0.12806,0.0125 0.72728,0.16363 0.85602,0.19511 0.14286,0.0312 0.29019,0.0464 0.42856,0.0937 0.156,0.0533 1.54254,0.81116 0.73259,0.33994 -5.50892,-3.20505 -3.53468,-2.11053 -2.43187,-1.29344 0.57948,0.5105 0.75361,1.18185 0.66593,1.9236 -0.29234,0.86476 -0.96159,1.50555 -1.61059,2.1175 -1.04533,0.91272 -2.3644,1.37715 -3.62601,1.90069 -1.21076,0.51971 -2.49757,0.74631 -3.80122,0.85796 -1.12762,0.0712 -2.25825,0.0612 -3.38751,0.0583 -1.22832,-0.005 -2.45666,-0.004 -3.68499,-0.006 -1.19167,-0.003 -2.38335,-0.004 -3.57503,-0.004 -1.01487,0.0455 -2.05683,-0.13474 -3.042005,0.16057 -0.984234,0.32654 -1.558517,1.66414 -2.049327,2.47495 -2.530748,4.18075 0.670086,-1.04253 -2.212512,3.64479 -2.156113,3.44677 -4.250203,6.92889 -6.477061,10.33044 -0.392422,0.7873 -1.34144,1.7536 -1.128247,2.74111 0.02736,0.12674 0.05433,0.28231 0.162865,0.35325 1.196064,0.7817 2.464697,1.4463 3.697046,2.16946 1.030206,0.14409 2.075998,0.0955 3.112924,0.078 1.184714,0.0447 2.283875,-0.41784 3.400401,-0.73961 1.11638,-0.39459 2.223616,-0.82352 3.360116,-1.15776 1.13289,-0.27687 2.24665,-0.62571 3.35661,-0.98317 1.11997,-0.26422 2.20958,-0.63051 3.34042,-0.85056 1.08204,-0.18427 2.18148,-0.20619 3.27617,-0.22231 0.96572,-0.0397 1.9633,0.046 2.85135,0.44907 1.44303,0.60938 0.68266,0.30565 -2.66465,-1.55936 -0.11682,-0.0651 0.2297,0.13729 0.34051,0.21216 0.33826,0.22856 0.6476,0.50226 0.96692,0.75576 0.11015,0.10056 0.22029,0.20112 0.33044,0.30168 0,0 3.64278,1.50837 3.64278,1.50837 v 0 c -0.10439,-0.11345 -0.20876,-0.2269 -0.31314,-0.34034 -1.63996,-1.33356 -3.35868,-2.62527 -5.41123,-3.30947 -0.95617,-0.28011 -1.93087,-0.39247 -2.92774,-0.32261 -1.10961,0.0253 -2.22394,0.0656 -3.31576,0.28334 -1.13308,0.24749 -2.24112,0.59483 -3.36284,0.88698 -1.10777,0.35904 -2.227708,0.67933 -3.353246,0.97779 -1.128421,0.35702 -2.237152,0.77412 -3.357898,1.15439 -1.093179,0.32803 -2.179929,0.7126 -3.341719,0.65047 -1.004287,0.0121 -2.059046,0.0976 -3.020293,-0.23927 1.01165,0.6156 2.023081,1.23154 3.034948,1.84678 0.06959,0.0423 -0.361635,-0.0357 -0.359262,-0.48167 0.0044,-0.81821 0.66266,-1.54842 0.98707,-2.23587 2.131899,-3.46003 4.176403,-6.97361 6.377887,-10.3904 0.767162,-1.19532 1.518993,-2.40064 2.303023,-3.58497 0.5098,-0.7701 1.03683,-1.88525 2.00867,-2.15747 0.97351,-0.19474 1.97883,-0.0514 2.9647,-0.0956 1.18911,-5.2e-4 2.37821,-0.001 3.56731,-7.9e-4 1.2312,0.001 2.46235,0.008 3.69354,0.0125 1.13593,2.7e-4 2.27407,0.006 3.40676,-0.0925 1.32434,-0.14652 2.62316,-0.42552 3.84984,-0.96348 1.31015,-0.53417 2.64694,-1.05952 3.72374,-2.00848 0.71417,-0.67504 1.42642,-1.39164 1.76142,-2.33597 0.14422,-0.86627 0.0614,-1.5735 -0.49731,-2.28633 -0.30429,-0.29004 -0.24666,-0.26865 -0.61227,-0.48239 -1.64016,-0.95885 -3.07542,-2.15266 -4.92249,-2.52523 -1.01188,-0.189 -2.03708,-0.10925 -3.062,-0.12399 -1.11586,-0.002 -2.23182,-0.008 -3.3476,0.008 -1.12895,0.0257 -2.26303,0.0646 -3.37383,0.2868 -1.13052,0.24842 -2.2347,0.59923 -3.35976,0.87013 -1.08916,0.32288 -2.19969,0.59434 -3.33455,0.69136 -1.11219,0.14646 -2.21605,0.41974 -3.34301,0.39338 -1.115541,-0.004 -2.234948,-0.002 -3.344189,-0.13628 -1.096127,-0.16911 -2.148973,-0.46604 -3.102169,-1.05438 5.040099,2.96756 2.496895,1.75995 1.217716,0.0818 -0.462619,-0.6873 -0.842431,-1.3982 -0.874091,-2.24368 -0.01024,-0.77608 0.371928,-1.38657 0.955461,-1.87814 0.545428,-0.59542 1.128742,-1.16969 1.784742,-1.64218 0.716213,-0.48738 1.521499,-0.71432 2.384054,-0.77592 1.007196,-0.0505 2.024556,0.0483 3.004996,0.28601 1.10727,0.3294 2.17052,0.79422 3.29981,1.05574 1.5398,0.43506 3.09657,0.81037 4.6321,1.26176 1.59427,0.45521 3.20771,0.83517 4.81444,1.24307 1.39139,0.26152 2.81106,0.47128 4.23022,0.38178 1.1687,-0.22171 2.25653,-0.64083 3.26633,-1.27878 1.07647,-0.76815 2.03084,-1.69459 2.90689,-2.68286 0.86141,-1.03337 1.678,-2.11253 2.07463,-3.41943 0.39568,-1.10721 0.61285,-2.24715 0.41842,-3.42365 -0.32948,-0.98348 -0.75125,-1.98401 -1.47425,-2.74396 -1.60558,-1.61922 -4.09849,-2.69785 -5.9873,-3.74879 -1.0822,-0.47938 -2.21943,-0.73871 -3.39934,-0.84065 -1.1774,-0.11605 -2.33186,0.0293 -3.49084,0.25619 -1.26845,0.20295 -2.55084,0.20169 -3.82069,0.39639 -1.13209,0.2275 -2.24605,0.53891 -3.36739,0.81129 -1.10857,0.36803 -2.19609,0.80758 -3.35002,1.02294 -1.13774,0.32178 -2.27391,0.66797 -3.373296,1.1035 -1.078167,0.4158 -2.19088,0.71939 -3.31333,0.99121 -0.980834,0.19135 -1.947666,0.48017 -2.955657,0.47977 -1.007534,0.005 -1.72661,-0.36641 -2.588604,-0.86937 5.937369,3.51381 1.307139,0.87025 0.06504,-0.1566 -0.859745,-0.60698 -1.72099,-1.28909 -2.255713,-2.21136 -0.407529,-0.90852 -0.427998,-1.23761 0.187759,-2.0994 0.718101,-0.79597 1.590228,-1.40237 2.592861,-1.7924 1.0287,-0.42362 2.116196,-0.6701 3.212891,-0.8461 1.125019,-0.10466 2.26635,-0.29545 3.38482,-0.0363 1.506331,0.2851 3.017799,0.47765 4.547469,0.59367 1.78722,0.1734 3.57284,0.18259 5.36797,0.14282 2.29469,-0.0321 4.59604,-0.07 6.87543,-0.36187 2.10353,-0.35054 4.20207,-0.8596 6.10419,-1.85413 1.16539,-0.70043 2.48047,-1.39933 2.93066,-2.77032 0.013,-0.14856 0.0582,-0.29778 0.0391,-0.44568 -0.21716,-1.68185 -3.75415,-2.62284 -5.52768,-2.99761 -1.37866,-0.28378 -2.7742,-0.46495 -4.16598,-0.67148 -1.12462,-0.0847 -2.23806,-0.24652 -3.35638,-0.3878 -1.22982,-0.039 -2.44889,0.15116 -3.66333,0.3294 -1.19817,0.16059 -2.39736,0.1463 -3.60307,0.20766 -1.1365,0.0931 -2.26236,0.26046 -3.36316,0.5669 -1.114568,0.23866 -2.239259,0.42543 -3.334398,0.75165 -1.12209,0.21348 -2.227485,0.50898 -3.367038,0.62365 -1.293219,0.20972 -2.581155,0.30305 -3.893322,0.23074 -1.733518,-0.0253 -3.470701,-0.0777 -5.190292,-0.31637 -1.706758,-0.27701 -3.427827,-0.62708 -5.020299,-1.31874 -1.608984,-0.81689 -0.307959,-0.17069 2.386534,1.45608 0.05014,0.0303 -0.962316,-0.36574 -0.456785,-0.43493 1.147117,-0.55216 2.443115,-0.76858 3.591809,-1.32907 2.99393,-1.02081 5.879872,-2.32066 8.84501,-3.41989 2.260465,-0.81444 4.528143,-1.57093 6.874361,-2.10029 2.47204,-0.87157 4.88933,-1.89334 7.37217,-2.73578 2.79229,-0.98771 5.57157,-2.01036 8.39553,-2.90753 1.92557,-0.62839 3.88492,-1.1879 5.71461,-2.07143 1.55407,-0.73483 2.96759,-1.67955 4.38409,-2.64736 z" />
    <path
       style="fill:#ffff00;stroke-width:0.264583"
       id="path6"
       d="m 79.343098,138.47834 c 1.417791,-7.9e-4 2.837717,-0.077 4.25005,0.0612 1.40535,0.0983 2.763586,0.41489 4.134225,0.71201 1.179312,0.15142 2.310768,0.51136 3.486481,0.68296 1.624957,0.23366 3.271536,0.38972 4.884224,0.70168 1.288521,0.2931 2.59356,0.48812 3.910832,0.58336 1.07003,0.25995 2.15253,0.43312 3.24874,0.52857 1.36366,0.0911 2.73194,0.0742 4.09785,0.0725 1.65621,-0.002 3.3124,-1.5e-4 4.9686,0.003 1.85407,-0.0394 3.69642,0.2095 5.54506,0.32803 2.0461,0.11768 4.09449,0.18591 6.1435,0.22263 1.09294,0.0763 2.10406,0.4669 3.14769,0.75377 0.14506,0.0687 0.28903,0.13979 0.4352,0.20612 0.26922,0.17162 0.59038,0.21381 0.87628,0.34279 0.13152,0.0593 0.50181,0.2851 0.37592,0.2146 -3.15592,-1.76752 -3.86867,-2.55631 -2.79512,-1.44589 0.53899,0.83396 0.53992,1.80556 0.34,2.74251 -0.32372,1.55393 -1.22316,2.80837 -2.27321,3.9575 -1.51159,1.41825 -3.22582,2.60601 -5.0385,3.60353 -1.51565,0.91435 -3.18331,1.48332 -4.8313,2.09463 -1.28683,0.43655 -2.57144,0.85778 -3.90879,1.10945 -1.19997,0.24134 -2.43309,0.13689 -3.63507,0.3283 -1.10545,0.22934 -2.22526,0.35333 -3.35089,0.42065 -1.09744,0.0519 -2.19644,0.0509 -3.29484,0.052 -1.241739,-0.0145 -1.778713,-0.15108 -2.855417,0.54688 -1.256159,1.15936 -2.257837,2.54133 -3.215155,3.94718 -0.801137,1.33906 -1.352781,2.81888 -1.445935,4.38168 0.0016,1.42488 1.054719,2.39758 2.125395,3.18054 2.079586,1.27939 4.125071,2.74988 6.544492,3.24878 0.73167,0.15088 1.12375,0.17339 1.87055,0.25243 2.53449,0.0496 5.02536,-0.50008 7.49049,-1.02367 2.69199,-0.57343 5.43186,-0.96441 8.187,-0.9459 2.17458,-4e-5 4.28868,0.53709 6.28486,1.36718 1.2251,0.55772 4.31215,2.051 -1.26355,-0.82877 -0.20524,-0.10601 0.37904,0.26502 0.55698,0.41232 0.46091,0.38152 0.47867,0.44836 0.84334,0.90071 0.90617,1.1556 1.02652,2.03488 1.01587,3.45699 -0.16805,2.51764 -1.41791,3.93131 -3.1037,5.67761 -3.71,3.23061 -8.5914,4.4336 -13.2481,5.61408 -4.88259,1.21128 -9.74657,2.47935 -14.481134,4.18796 -2.586503,1.11486 -5.083032,2.46279 -7.409656,4.05354 -1.164318,0.79606 -2.017938,1.48396 -3.125208,2.3433 -1.989138,1.62501 -4.038256,3.2429 -5.294292,5.52318 -0.150603,0.43844 -0.309178,0.7161 -0.240749,1.1907 0.05347,0.37088 0.291777,0.86007 0.619794,1.06881 3.736441,2.37772 2.560508,2.08431 4.861409,2.44481 0.338627,-0.004 0.679093,0.0227 1.015884,-0.0128 2.519907,-0.26558 4.980678,-1.24035 7.32327,-2.14652 2.461903,-0.92294 4.903157,-1.88115 7.464952,-2.48939 1.62452,-0.3966 3.30012,-0.18004 4.94405,-0.0475 1.33628,0.0941 2.67544,0.13043 4.01456,0.15045 1.01941,0.0236 2.07531,-0.10459 3.02957,0.31839 -1.05426,-0.58488 -2.0905,-1.2035 -3.16279,-1.75463 -0.0793,-0.0408 0.12441,0.13182 0.16239,0.21247 0.0469,0.0995 0.0762,0.20877 0.0876,0.31819 0.0494,0.47688 -0.1872,0.87735 -0.39563,1.28276 -1.01024,1.65424 -2.46539,2.9374 -3.82515,4.29291 -1.25321,1.15968 -2.47783,2.35515 -3.74527,3.49933 -0.68209,0.55162 -1.21372,1.33671 -1.9458,1.82423 3.8844,2.27675 2.84555,2.91708 3.85396,1.24057 0,0 -3.41009,-1.98457 -3.41009,-1.98457 v 0 c -1.077611,1.66696 -0.510588,0.76776 2.92351,2.85601 0.64755,-0.61255 1.26646,-1.25724 1.90729,-1.87742 1.24582,-1.16974 2.47202,-2.3607 3.70865,-3.54013 1.38862,-1.3865 2.87389,-2.69438 3.94259,-4.35984 1.50037,-2.78517 -0.23204,-2.68551 -3.21849,-4.43583 -1.01124,-0.25406 -2.04707,-0.1916 -3.08218,-0.20304 -1.33221,-0.0216 -2.6647,-0.0591 -3.99335,-0.16454 -1.65955,-0.12084 -3.345482,-0.27132 -4.972937,0.17967 -2.547448,0.6604 -4.990388,1.62403 -7.447269,2.55926 -2.317975,0.89119 -4.778838,1.87582 -7.292602,1.98531 -0.328097,0.0143 -0.655754,-0.0373 -0.983631,-0.056 -1.764202,-0.49474 -1.379368,-0.46702 1.8634,1.39816 0.171368,0.0986 -0.339156,-0.21121 -0.475745,-0.35413 -0.421301,-0.44083 -0.331351,-0.93336 -0.148275,-1.45711 1.170744,-2.25739 3.164081,-3.86156 5.09669,-5.45591 3.209734,-2.52547 6.629588,-4.78049 10.43252,-6.32221 4.708669,-1.70465 9.542949,-2.98934 14.399519,-4.20041 4.74115,-1.21836 9.69183,-2.4311 13.4853,-5.70211 1.76973,-1.78087 3.10399,-3.28127 3.34479,-5.87575 0.0509,-1.55052 0.0456,-2.37208 -0.89356,-3.68446 -1.55912,-2.27635 -4.33,-3.34775 -6.78966,-4.43667 -2.03186,-0.77042 -4.15566,-1.26254 -6.34237,-1.22555 -2.76491,0.0421 -5.51018,0.43793 -8.21131,1.02302 -2.45742,0.50136 -4.94508,1.03374 -7.468664,0.88621 -0.914894,-0.11994 -1.80654,-0.24837 -2.683838,-0.54882 -0.270584,-0.0927 -1.032094,-0.4798 -0.797837,-0.31571 0.366183,0.25651 4.074899,2.44116 1.806096,1.10255 -0.802257,-0.49938 -1.918872,-1.3323 -2.204104,-2.30479 -0.04776,-0.16283 -0.03669,-0.33738 -0.05504,-0.50607 -0.0155,-1.49639 0.559816,-2.92778 1.301475,-4.20692 0.92307,-1.3642 1.890451,-2.71784 3.172232,-3.77403 0.92041,-0.50331 1.70744,-0.37964 2.72885,-0.377 1.10319,-0.003 2.20728,-0.006 3.30885,-0.0732 1.12988,-0.0836 2.2495,-0.23734 3.36368,-0.44371 1.21134,-0.13126 2.44113,-0.0974 3.6392,-0.35571 1.34218,-0.28249 2.64446,-0.70374 3.93467,-1.1666 1.65911,-0.61401 3.31268,-1.24695 4.83492,-2.16487 1.83197,-1.04444 3.58412,-2.24417 5.1159,-3.70131 1.09262,-1.19677 2.04686,-2.49619 2.40611,-4.10905 0.2687,-1.03012 0.27883,-2.05394 -0.16141,-3.04681 -1.14616,-1.81256 -3.69034,-2.47233 -5.6394,-3.27496 -1.04345,-0.3105 -2.08467,-0.63337 -3.1856,-0.6528 -2.02995,-0.0224 -4.06025,-0.0719 -6.08624,-0.20709 -1.86854,-0.14021 -3.73373,-0.39478 -5.61078,-0.34229 -1.65082,0.006 -3.30164,0.0134 -4.95247,0.007 -1.3697,-0.0101 -2.74226,-0.008 -4.108,-0.12542 -1.094867,-0.11754 -2.167456,-0.34343 -3.252544,-0.52285 -1.299456,-0.11291 -2.584122,-0.32475 -3.860491,-0.59355 -1.630121,-0.26878 -3.273218,-0.46434 -4.906891,-0.71172 -1.162936,-0.21261 -2.30515,-0.52391 -3.475352,-0.70038 -1.369605,-0.30245 -2.742845,-0.55393 -4.145055,-0.65452 -1.438074,-0.0936 -2.878976,-0.043 -4.3194,-0.0726 z" />
    <path
       style="fill:#ffff00;stroke-width:0.264583"
       id="path7"
       d="m 85.89293,139.04233 c 2.650704,-0.3918 5.28865,-0.88519 7.909547,-1.44337 3.758657,-0.83684 7.456013,-1.92013 11.170363,-2.93008 3.5184,-0.86565 7.06294,-1.62709 10.62426,-2.29452 1.87933,-0.38324 3.78835,-0.4879 5.69996,-0.52946 2.12277,0.11425 4.23913,0.29347 6.30481,0.81141 0.66818,0.18011 0.94873,0.22996 1.57792,0.49653 0.23187,0.0982 0.89657,0.45801 0.67892,0.33135 -4.81488,-2.802 -2.89839,-1.88502 -1.97298,-0.73374 0.86498,1.42585 0.38565,2.62113 -0.2625,4.0126 -1.37778,2.47919 -3.37588,4.51402 -5.43742,6.42779 -3.27971,2.70996 -7.16502,4.44672 -11.16752,5.78315 -2.48969,0.90661 -5.09475,1.38151 -7.6698,1.9633 -2.0239,0.51153 -3.875604,1.49037 -5.718278,2.44673 -4.066284,2.09742 -8.029176,4.38408 -11.941524,6.75411 -2.504403,1.54314 -5.019665,3.07844 -7.102788,5.17376 -1.163068,1.25526 -1.190929,2.53945 -0.835345,4.1181 0.382728,1.49063 0.990341,2.90485 1.643457,4.29328 0.444405,0.83486 1.047335,1.68325 1.882008,2.17546 3.97389,2.3434 2.637316,1.91547 4.981754,2.5202 0.56583,0.0521 1.547969,0.16737 2.112116,0.11596 2.167022,-0.19747 4.222994,-1.05009 6.245178,-1.78534 0.49716,-0.19285 0.996328,-0.3806 1.49148,-0.57855 1.331962,-0.53248 1.447958,-0.63708 2.799265,-1.08508 1.311447,-0.43479 2.624487,-0.70687 3.983717,-0.93485 2.63705,-0.35907 5.30391,-0.35799 7.95987,-0.3745 2.94624,0.0745 5.85829,0.5224 8.7611,0.99451 1.52623,0.29282 3.05428,0.59246 4.51954,1.12318 0.25164,0.0911 0.98021,0.42872 0.74213,0.30646 -0.92352,-0.47422 -1.86683,-0.90887 -2.80025,-1.36331 0.10661,0.22768 0.24983,0.44158 0.31984,0.68305 0.45346,1.56399 -0.53607,2.71746 -1.54631,3.74325 -2.0502,1.89505 -4.49319,3.29534 -6.91977,4.64691 -2.35407,1.23233 -4.72195,2.42627 -7.01083,3.77734 -1.46148,0.83837 -3.00706,1.51435 -4.3201,2.58125 -1.95625,1.87713 -3.531846,4.11574 -5.17674,6.2616 -1.948587,2.58229 -4.125325,4.97649 -6.17815,7.4734 -0.576717,0.85249 -1.733526,1.9789 -1.382257,3.14511 0.04456,0.14793 0.13808,0.27643 0.207118,0.41465 1.666169,1.92129 3.937069,2.74149 6.310029,2.87655 1.360898,0.10791 2.667458,-0.28969 3.93108,-0.74643 1.37922,-0.61134 2.68139,-1.3794 3.89399,-2.27488 1.24128,-0.96533 2.30708,-2.12175 3.57791,-3.04889 1.13718,-0.75685 2.34477,-1.30268 3.6803,-1.57831 0.48134,-0.0352 0.89926,0.0268 1.33794,0.21424 0.12487,0.0533 0.49044,0.23193 0.37294,0.16388 -3.36337,-1.94792 -3.93419,-2.47211 -2.78792,-1.48379 0.56889,0.76147 0.57228,1.7512 0.61413,2.66271 -0.0411,1.10844 -0.36546,2.15235 -0.95853,3.08363 -0.59113,0.90286 -1.27868,1.74682 -1.98175,2.56634 -0.55813,0.52142 -1.06544,1.09352 -1.58288,1.65441 0,0 3.35553,2.03868 3.35553,2.03868 v 0 c 0.52274,-0.56194 1.03867,-1.13101 1.58774,-1.66767 0.72036,-0.83029 1.42412,-1.68567 2.01636,-2.61237 0.63273,-0.99759 0.98465,-2.11 1.07404,-3.29127 -0.0305,-0.98195 -0.0399,-2.00399 -0.48172,-2.90423 -1.06935,-1.48131 -0.22374,-0.40568 -3.96007,-2.48502 -0.17888,-0.0995 -0.62342,-0.19933 -0.81961,-0.21959 -0.41479,-0.0428 -0.59492,-2e-4 -1.01192,0.0449 -1.35715,0.33627 -2.59597,0.93143 -3.74751,1.72834 -1.25494,0.94613 -2.339,2.08234 -3.58377,3.04169 -1.193217,0.86138 -2.468305,1.61935 -3.833865,2.17531 -1.247444,0.41282 -2.517415,0.7633 -3.846833,0.6088 -0.559657,-0.0556 -1.118036,-0.10506 -1.655273,-0.28545 -0.157715,-0.053 -0.602226,-0.27893 -0.461377,-0.19038 6.799818,4.27509 3.419112,2.06325 2.577052,1.51041 -0.173556,-0.19027 -0.36448,-0.33426 -0.397322,-0.61286 -0.113583,-0.96345 0.818303,-1.81603 1.263626,-2.55013 2.003253,-2.53443 4.130302,-4.96733 6.101972,-7.52746 1.65367,-2.1118 3.26343,-4.30101 5.26204,-6.1042 1.29995,-1.03593 2.82081,-1.71225 4.24072,-2.566 2.27552,-1.35278 4.62483,-2.55971 6.9653,-3.79543 2.45849,-1.37872 4.93585,-2.79404 7.02303,-4.71029 1.53651,-1.5607 2.3045,-2.71768 1.5254,-4.92807 -1.28677,-0.85269 -2.5453,-1.74958 -3.86029,-2.55806 -0.22673,-0.13939 -0.49657,-0.19238 -0.74925,-0.27597 -1.46447,-0.48447 -2.98354,-0.75695 -4.49657,-1.03796 -2.9162,-0.46377 -5.84491,-0.9007 -8.80374,-0.94764 -2.6714,0.0134 -5.35535,0.0199 -8.002983,0.42234 -1.237504,0.22437 -1.439645,0.22987 -2.64972,0.57343 -1.428218,0.40551 -2.776487,0.9737 -4.15069,1.52613 -0.491056,0.19741 -0.986253,0.38435 -1.479381,0.57652 -2.663074,0.96737 -5.415108,2.03827 -8.288837,1.41824 -1.798344,-0.59894 -1.325275,-0.51399 1.723223,1.28527 0.215246,0.12704 -0.431644,-0.2552 -0.627417,-0.41058 -0.195538,-0.15519 -0.820481,-0.79823 -0.976572,-1.00589 -0.135617,-0.18042 -0.237112,-0.38413 -0.355669,-0.57619 -0.648853,-1.37007 -1.280935,-2.74858 -1.671484,-4.21936 -0.382958,-1.45088 -0.456208,-2.59735 0.62221,-3.784 2.019242,-2.08701 4.457962,-3.64652 6.906726,-5.18589 3.904829,-2.39256 7.876735,-4.67605 11.997034,-6.68076 1.86177,-0.89912 3.73175,-1.81275 5.74619,-2.31917 2.54278,-0.61552 5.11057,-1.14955 7.56445,-2.08154 4.02409,-1.40876 7.96816,-3.16043 11.28645,-5.89246 2.11052,-1.93998 4.16416,-3.99234 5.5981,-6.50177 0.7399,-1.51843 1.26247,-2.7271 0.49209,-4.36267 -1.46805,-2.297 -4.42598,-3.31578 -6.97351,-4.0092 -2.0912,-0.45496 -4.2249,-0.65187 -6.36203,-0.73163 -1.91526,0.0469 -3.82195,0.17881 -5.69524,0.61363 -3.53529,0.7284 -7.06472,1.49166 -10.56693,2.36631 -3.721899,0.99985 -7.426937,2.07656 -11.19667,2.88546 -2.659279,0.54594 -5.335571,1.03974 -8.035329,1.33609 z" />
    <path
       style="fill:#ffff00;stroke-width:0.264583"
       id="path8"
       d="m 103.8577,213.35486 c -2.4809,0.4807 -4.893769,1.15239 -7.271643,2.00607 -4.349493,1.60268 -8.268221,4.12107 -12.105507,6.67783 -1.997755,1.55023 -4.660943,2.99496 -6.285791,4.9733 -0.182682,0.22243 -0.320183,0.4784 -0.480274,0.7176 -0.366104,0.87596 -0.377913,1.90882 0.534389,2.47811 3.417171,2.13238 2.834161,1.85261 5.018619,2.70597 3.335677,1.18719 6.873314,0.42113 10.28333,0.0188 4.327327,-0.55376 8.594187,-1.47276 12.883617,-2.25063 2.00533,-0.2441 3.98181,-0.6596 5.97643,-0.97007 0.25799,0.002 0.74522,-0.009 1.00965,0.0494 0.12862,0.0285 0.48308,0.20736 0.36908,0.14134 -5.69753,-3.29948 -3.3706,-2.3921 -2.69668,-1.21453 0.28425,1.32423 -0.44081,2.45351 -1.21474,3.45171 -2.23539,2.38792 -5.1117,4.01215 -7.99946,5.47601 -2.873916,1.34854 -5.828973,2.51163 -8.748118,3.75533 -1.175563,0.59306 -2.688331,0.76065 -3.646969,1.74574 -0.129458,0.13303 -0.217215,0.30107 -0.325824,0.45161 -0.13272,0.33872 -0.307028,0.94713 0.120195,1.20302 3.295888,1.97411 3.045211,2.46332 5.705036,1.97696 2.729235,-0.61656 5.12413,-2.06108 7.51385,-3.45244 1.42932,-0.72846 2.81752,-1.53187 4.22979,-2.29157 0,0 -3.24382,-2.1162 -3.24382,-2.1162 v 0 c -1.39255,0.78249 -2.7729,1.58617 -4.186236,2.33142 -2.362928,1.37949 -4.754452,2.7843 -7.481081,3.29446 -0.319349,0.0311 -0.637204,0.0963 -0.958048,0.0933 -0.249881,-0.002 -0.937363,-0.26455 -0.741691,-0.10912 0.868656,0.69 1.894123,1.15606 2.823089,1.76244 0.100091,0.0653 -0.239351,-0.0603 -0.331709,-0.1362 -0.20062,-0.16482 -0.09723,-0.35384 -0.05926,-0.55425 0.861428,-1.21383 2.529308,-1.42562 3.782862,-2.06812 2.898169,-1.27387 5.832464,-2.46734 8.696614,-3.81805 2.93716,-1.50402 5.8616,-3.16812 8.1782,-5.55856 0.96539,-1.20306 1.55617,-2.20336 1.4785,-3.78756 -0.67443,-2.10389 -3.39315,-3.11636 -5.47715,-2.87422 -1.96262,0.34687 -3.91353,0.75505 -5.88642,1.04392 -4.238099,0.84209 -8.465363,1.7663 -12.756478,2.30588 -3.440041,0.37255 -7.017655,1.00201 -10.340203,-0.29825 -1.672513,-0.72477 -1.665663,-0.77099 1.647606,1.1583 0.202464,0.11789 -0.407829,-0.23882 -0.578184,-0.39966 -0.481703,-0.45482 -0.409104,-1.00932 -0.214958,-1.57935 0.139756,-0.22415 0.256683,-0.46427 0.419267,-0.67247 1.542696,-1.97547 4.161187,-3.45306 6.098627,-4.98899 3.818851,-2.56135 7.749987,-5.03316 12.11661,-6.55691 2.412143,-0.81532 4.860673,-1.4664 7.380793,-1.85456 z" />
    <path
       style="fill:#ffff00;stroke-width:0.264583"
       id="path9"
       d="m 93.425368,149.16244 c 2.27243,0.0449 4.531569,-0.12222 6.795182,-0.29435 2.72679,-0.16531 5.42348,-0.62723 8.13243,-0.96144 1.29088,-0.0377 2.70801,-0.53753 3.98767,-0.11528 0.17067,0.0563 0.63474,0.33749 0.47578,0.25363 -1.02565,-0.54103 -2.05057,-1.08346 -3.07586,-1.62519 0.038,0.1515 0.11742,0.29833 0.1141,0.4545 -0.01,0.46772 -0.33179,1.14124 -0.52213,1.50989 -0.74083,1.43486 -1.72873,2.69161 -2.7079,3.96667 -3.24047,3.80331 -7.215037,6.84631 -11.255701,9.7403 -2.515788,1.71467 -5.080661,3.40685 -7.26549,5.53991 -1.486222,1.43206 -2.591175,3.15117 -3.398361,5.03834 -0.41316,1.17402 -0.800351,2.59318 -0.158832,3.7722 0.140486,0.25819 0.349647,0.47259 0.52447,0.70888 1.998237,1.46283 4.16038,2.93859 6.6688,3.18702 1.647782,0.1632 3.302767,-0.0684 4.939109,-0.23277 2.958629,-0.31835 5.889845,-0.83158 8.850825,-1.13425 1.6832,-0.17121 3.37484,-0.20162 5.06512,-0.21637 0.92803,0.0494 1.86976,-0.067 2.79664,0.005 0.2481,0.0193 0.79089,0.14233 1.04186,0.19559 1.53814,0.95548 -1.45983,-0.91546 -2.80609,-1.50182 -0.126,-0.0549 0.11953,0.25615 0.12293,0.39354 0.005,0.21928 -0.0464,0.43743 -0.0971,0.65086 -0.19603,0.82625 -0.40716,1.24862 -0.73494,2.06114 -1.52949,3.32456 -3.42489,6.45913 -5.34827,9.56595 -1.8873,3.08251 -3.92938,6.06235 -6.005552,9.01907 -1.237324,1.71411 -2.62386,3.32014 -3.436456,5.28996 -1.004194,3.16314 1.56795,3.46042 4.265548,5.04514 1.68961,0.57509 3.42492,0.34634 5.13561,0.0264 1.52755,-0.35684 3.00789,-0.87147 4.51524,-1.29687 0.58157,-0.05 1.08968,-0.35768 1.64353,-0.50273 1.32369,-0.34666 4.17728,1.95194 -2.67669,-1.82071 -0.48092,1.24249 -1.95433,2.49857 -2.88128,3.44355 -1.682,1.60984 -3.30039,3.2745 -4.78499,5.06863 -1.81454,2.21207 -3.188447,4.71135 -4.384028,7.29698 -0.65264,1.85757 -1.637988,3.65717 -1.862603,5.63695 1.625327,3.93522 4.630886,1.93967 6.890971,1.17482 1.45923,-0.43982 2.5005,-0.52431 3.80852,0.31106 -0.97395,-0.53475 -1.92577,-1.11196 -2.92186,-1.60425 -0.16073,-0.0794 0.27612,0.2298 0.40106,0.35838 0.12766,0.1314 0.24934,0.26992 0.3549,0.41966 0.33667,0.47756 0.48475,0.96271 0.5855,1.52784 -0.0448,1.59529 -1.19142,2.69293 -2.3057,3.68602 -1.73063,1.3707 -3.645103,2.51526 -5.667237,3.39921 -0.302017,0.25472 -1.005327,0.23412 -1.246624,0.60437 -0.876353,1.34469 2.353662,2.41018 3.819033,2.39249 1.334138,0.019 3.755858,1.93673 -2.826412,-1.79561 0,0 3.608332,1.6762 3.608332,1.6762 v 0 c -2.821757,-1.80324 -2.216851,-2.15342 -3.966466,-2.23396 -1.58155,-0.28875 0.114588,-0.0178 2.888906,1.93918 0.05913,0.0417 -0.120865,0.0843 -0.163505,0.14277 -0.03309,0.0454 0.08525,-0.0742 0.133916,-0.1022 0.122828,-0.0707 0.25096,-0.13189 0.37886,-0.19293 0.203186,-0.097 0.409458,-0.18733 0.61419,-0.28099 2.022977,-0.95332 3.947387,-2.12981 5.708337,-3.50953 1.23154,-1.077 2.40798,-2.2681 2.54803,-3.9884 -0.27407,-2.86568 -2.57784,-3.44592 -4.99925,-4.90337 -1.33823,-0.63367 -2.59732,-0.50742 -3.97945,-0.0311 -0.731362,0.25492 -1.455375,0.58414 -2.197489,0.80356 -0.196292,0.058 -0.75469,-0.006 -0.600491,0.12847 2.145115,1.87268 4.20943,2.09048 2.62885,1.88667 0.01503,-1.95377 1.128511,-3.7422 1.69619,-5.56465 1.17039,-2.56438 2.52873,-5.02909 4.3519,-7.19773 1.49678,-1.77049 3.10217,-3.43258 4.77754,-5.03517 1.18553,-1.18431 2.53903,-2.33592 3.24718,-3.88458 -1.17524,-0.69903 -2.32295,-1.44657 -3.52572,-2.0971 -0.25206,-0.13633 -1.94486,0.6353 -2.32765,0.63752 -1.48493,0.44701 -2.95447,0.94799 -4.47289,1.27677 -1.67645,0.29543 -3.396345,0.46557 -4.997299,-0.256 5.866269,3.53372 2.578231,2.02315 2.131436,0.92743 -0.219017,-0.53711 -0.110353,-1.07622 0.06865,-1.60607 0.751933,-1.96104 2.104153,-3.5618 3.298553,-5.26701 2.05767,-2.97661 4.07038,-5.98195 5.96489,-9.06615 1.93917,-3.11989 3.84825,-6.26558 5.46511,-9.56797 1.41659,-3.24177 2.0358,-4.36037 -2.97866,-5.85552 -1.27722,-0.20642 -2.56909,-0.11161 -3.85833,-0.12069 -1.68515,0.0189 -3.37123,0.0764 -5.04601,0.27755 -2.936588,0.34524 -5.847462,0.87425 -8.789846,1.17092 -1.631857,0.14753 -3.27421,0.34973 -4.910531,0.11546 -0.447268,-0.064 -1.592244,-0.66153 -1.321996,-0.29944 0.520705,0.69769 1.474541,0.92869 2.176221,1.444 0.273474,0.20083 -0.591894,-0.33188 -0.887843,-0.49783 -0.186688,-0.19815 -0.403956,-0.37142 -0.560062,-0.59447 -0.732639,-1.04678 -0.356936,-2.40875 0.007,-3.50606 0.757531,-1.85362 1.839651,-3.52404 3.280564,-4.92756 2.160005,-2.11035 4.669694,-3.82347 7.131954,-5.55849 4.029559,-2.97029 7.979269,-6.07863 11.344359,-9.80895 1.06506,-1.34615 3.26055,-3.89328 3.52089,-5.66144 0.0309,-0.20952 -0.0126,-0.42338 -0.0189,-0.63507 -1.21015,-0.79031 -2.39654,-1.61827 -3.63046,-2.37094 -0.96381,-0.5879 -3.439,0.0446 -4.49431,0.0905 -2.70805,0.35278 -5.413138,0.76272 -8.140821,0.93189 -2.283253,0.17401 -4.565449,0.32201 -6.856904,0.21341 z" />
  </g>
  <g
     inkscape:groupmode="layer"
     id="layer4"
     inkscape:label="Clouds">
    <ellipse
       style="fill:#ececec;stroke-width:0.242585"
       id="path10"
       cx="31.24032"
       cy="22.868393"
       rx="19.247314"
       ry="10.390016"
       transform="matrix(0.99956579,0.02946581,0,1,0,0)" />
    <ellipse
       style="fill:#ececec;stroke-width:0.242585"
       id="path10-5"
       cx="41.171124"
       cy="14.895484"
       rx="19.247314"
       ry="10.390016"
       transform="matrix(0.99956579,0.02946581,0,1,0,0)" />
    <ellipse
       style="fill:#ececec;stroke-width:0.242585"
       id="path10-2"
       cx="41.171124"
       cy="14.895484"
       rx="19.247314"
       ry="10.390016"
       transform="matrix(0.99956579,0.02946581,0,1,0,0)" />
    <ellipse
       style="fill:#ececec;stroke-width:0.242585"
       id="path10-2-75"
       cx="63.639168"
       cy="18.324173"
       rx="19.247314"
       ry="10.390016"
       transform="matrix(0.99956579,0.02946581,0,1,0,0)" />
    <ellipse
       style="fill:#ececec;stroke-width:0.236073"
       id="path10-2-8"
       cx="185.74178"
       cy="-8.2757788"
       rx="21.381464"
       ry="8.8575411"
       transform="rotate(12.441555)" />
    <ellipse
       style="fill:#ececec;stroke-width:0.236073"
       id="path10-2-8-4"
       cx="166.86116"
       cy="-14.705256"
       rx="21.381464"
       ry="8.8575411"
       transform="rotate(12.441555)" />
    <ellipse
       style="fill:#ececec;stroke-width:0.236073"
       id="path10-2-8-6"
       cx="144.686"
       cy="-8.4228354"
       rx="21.381464"
       ry="8.8575411"
       transform="rotate(12.441555)" />
  </g>
  <g
     inkscape:groupmode="layer"
     id="layer5"
     inkscape:label="Mountain">
    <path
       style="fill:#666666;stroke-width:0.264583"
       d="M -2.4168721,131.80672 24.157192,68.290686 49.362126,132.06758 Z"
       id="path12"
       sodipodi:nodetypes="cccc" />
    <path
       style="fill:#666666;stroke-width:0.264583"
       d="M 18.689074,129.52558 46.535706,82.387204 70.468071,129.78644 Z"
       id="path12-3"
       sodipodi:nodetypes="cccc" />
    <path
       style="fill:#666666;stroke-width:0.264583"
       d="M 34.017206,132.19641 63.191173,66.113624 85.796204,132.45727 Z"
       id="path12-1"
       sodipodi:nodetypes="cccc" />
    <path
       style="fill:#666666;stroke-width:0.264583"
       d="m 161.16115,131.83263 19.28742,-49.61721 32.49158,49.87807 z"
       id="path12-7"
       sodipodi:nodetypes="cccc" />
    <path
       style="fill:#666666;stroke-width:0.264583"
       d="M 128.26224,131.30447 148.3697,82.786883 180.04124,131.56533 Z"
       id="path12-9"
       sodipodi:nodetypes="cccc" />
    <path
       style="fill:#666666;stroke-width:0.264583"
       d="m 17.284166,87.265366 c 0.277789,-1.823498 2.150525,0.04516 2.762757,-0.556297 0.114802,-0.112784 -0.121542,-0.377314 0,-0.482798 0.656927,-0.570133 6.075924,0.56929 6.717377,0 0.07653,-0.06792 -0.08787,-0.254545 0,-0.306973 0.294145,-0.1755 0.785368,0.2422 1.027567,0 0.120931,-0.12093 -0.12093,-0.392133 0,-0.513064 0.178258,-0.178258 0.840788,0.172395 1.021803,0 0.104306,-0.09934 0.142327,-0.428318 0.245001,-0.515945 0.139801,-0.119311 1.239422,-0.307756 1.239422,-0.514504"
       id="path13" />
  </g>
  <g
     inkscape:groupmode="layer"
     id="g19"
     inkscape:label="MountainReflection"
     transform="matrix(1,0,0,-0.76778026,-0.4049738,231.85377)"
     style="opacity:0.5">
    <path
       style="fill:#666666;stroke-width:0.264583"
       d="M -2.4168721,131.80672 24.157192,68.290686 49.362126,132.06758 Z"
       id="path14"
       sodipodi:nodetypes="cccc" />
    <path
       style="fill:#666666;stroke-width:0.264583"
       d="M 18.689074,129.52558 46.535706,82.387204 70.468071,129.78644 Z"
       id="path15"
       sodipodi:nodetypes="cccc" />
    <path
       style="fill:#666666;stroke-width:0.264583"
       d="M 34.017206,132.19641 63.191173,66.113624 85.796204,132.45727 Z"
       id="path16"
       sodipodi:nodetypes="cccc" />
    <path
       style="fill:#666666;stroke-width:0.264583"
       d="m 161.16115,131.83263 19.28742,-49.61721 32.49158,49.87807 z"
       id="path17"
       sodipodi:nodetypes="cccc" />
    <path
       style="fill:#666666;stroke-width:0.264583"
       d="M 128.26224,131.30447 148.3697,82.786883 180.04124,131.56533 Z"
       id="path18"
       sodipodi:nodetypes="cccc" />
    <path
       style="fill:#666666;stroke-width:0.264583"
       d="m 17.284166,87.265366 c 0.277789,-1.823498 2.150525,0.04516 2.762757,-0.556297 0.114802,-0.112784 -0.121542,-0.377314 0,-0.482798 0.656927,-0.570133 6.075924,0.56929 6.717377,0 0.07653,-0.06792 -0.08787,-0.254545 0,-0.306973 0.294145,-0.1755 0.785368,0.2422 1.027567,0 0.120931,-0.12093 -0.12093,-0.392133 0,-0.513064 0.178258,-0.178258 0.840788,0.172395 1.021803,0 0.104306,-0.09934 0.142327,-0.428318 0.245001,-0.515945 0.139801,-0.119311 1.239422,-0.307756 1.239422,-0.514504"
       id="path19" />
  </g>
  <g
     inkscape:label="Layer 1"
     inkscape:groupmode="layer"
     id="layer1">
    <path
       style="fill:#aaccff;stroke-width:0.264583"
       id="path21"
       d="m 139.16594,144.66978 c 1.6509,0.50265 3.37161,0.63992 5.08487,0.73795 2.38069,0.21702 4.73869,-0.0515 7.0887,-0.40568 2.10789,-0.37576 4.16242,-0.97806 6.26531,-1.37621 1.45299,-0.40897 2.93648,-0.66703 4.43777,-0.80494 1.15678,-0.0491 2.30194,-0.0537 3.40826,-0.42806 0,0 -3.24684,-2.21242 -3.24684,-2.21242 v 0 c -1.09335,0.30829 -2.21873,0.2858 -3.34346,0.37779 -1.49823,0.16878 -2.97415,0.46252 -4.43035,0.85518 -2.08043,0.43506 -4.12222,1.03626 -6.22133,1.38415 -2.33767,0.34461 -4.68555,0.56362 -7.04924,0.33273 -1.72324,-0.13098 -3.46837,-0.28552 -5.09912,-0.9009 z" />
    <path
       style="fill:#aaccff;stroke-width:0.264583"
       id="path22"
       d="m 162.79775,164.3977 c 1.70982,-0.84327 3.66413,-1.16411 5.5325,-1.47572 2.34337,-0.29165 4.71524,-0.53422 7.07769,-0.39934 1.97809,0.18818 3.95916,0.32933 5.94414,0.41677 1.3613,0.17441 2.72007,0.34022 4.0418,0.71222 1.24858,0.62597 3.2485,1.80221 -2.33648,-1.36008 0,0 3.672,1.44623 3.672,1.44623 v 0 c -1.46134,-0.85932 -2.84006,-1.91835 -4.45169,-2.47606 -1.32384,-0.32994 -2.6886,-0.46603 -4.04304,-0.60811 -1.98151,-0.0859 -3.95689,-0.24742 -5.93343,-0.40844 -2.37101,-0.0676 -4.74268,0.17413 -7.09066,0.48859 -1.93648,0.32733 -3.92164,0.67376 -5.72176,1.48664 z" />
    <path
       style="fill:#aaccff;stroke-width:0.264583"
       id="path23"
       d="m 136.02707,193.6868 c 2.16097,-0.31983 4.28039,-0.8808 6.38189,-1.47264 1.97316,-0.49063 3.91164,-1.0864 5.84964,-1.6956 1.59896,-0.65146 3.28828,-1.02885 5.01453,-1.03393 0.93693,0.10393 1.9275,0.0267 2.83829,0.3133 0.14337,0.0451 0.87722,0.38478 1.0266,0.45294 -5.95145,-3.22183 -3.02568,-2.15067 -2.36833,-1.04671 0.21849,0.36691 0.35754,0.80905 0.52049,1.20259 0.36747,0.88482 0.92371,1.60255 1.64843,2.21869 2.97706,2.16842 4.87312,2.84309 8.13684,3.41833 1.90314,0.29058 3.82833,0.36898 5.75011,0.41667 0.88704,-0.0321 1.78582,0.0821 2.67211,0.019 0.24148,-0.0172 0.93544,-0.14482 1.17793,-0.18728 0.73577,-0.14347 1.48012,-0.22613 2.22606,-0.29217 0,0 -3.1925,-2.27291 -3.1925,-2.27291 v 0 c -0.74993,0.0782 -1.49711,0.17601 -2.2385,0.3155 -1.25405,0.19288 -2.51548,0.14715 -3.78144,0.12788 -1.90174,-0.0418 -3.80805,-0.12318 -5.68629,-0.44689 -0.96081,-0.18947 -1.9022,-0.39945 -2.83604,-0.6983 -0.25556,-0.0818 -0.98031,-0.41746 -0.76076,-0.26319 0.39725,0.27913 4.08101,2.43501 2.17711,1.31933 -0.76397,-0.53656 -1.30823,-1.18371 -1.7204,-2.02232 -1.08506,-2.81137 -1.04228,-2.18474 -4.80081,-4.24013 -1.25807,-0.50999 -2.57953,-0.61374 -3.93148,-0.60468 -1.74777,0.0881 -3.45288,0.46543 -5.07791,1.123 -1.91427,0.62006 -3.83516,1.20785 -5.78009,1.72679 -2.14024,0.59959 -4.29897,1.11711 -6.50866,1.37672 z" />
    <path
       style="fill:#aaccff;stroke-width:0.264583"
       id="path24"
       d="m 162.93648,210.98889 c 1.25407,-0.39822 2.50484,-0.81571 3.77329,-1.16835 1.4012,-0.42714 2.80042,-0.31482 4.22169,-0.08 2.77297,0.60427 5.55364,1.1725 8.323,1.79372 2.49552,0.40944 4.87187,1.28095 7.31112,1.91322 0.67023,0.17035 1.35345,0.27001 2.03788,0.35963 0,0 -3.13541,-2.34393 -3.13541,-2.34393 v 0 c -0.66331,-0.0951 -1.32535,-0.19989 -1.97475,-0.36961 -2.4073,-0.62883 -4.77301,-1.42197 -7.23335,-1.83679 -2.80572,-0.61961 -5.61168,-1.23731 -8.42189,-1.83648 -1.4718,-0.20897 -2.91282,-0.27797 -4.34799,0.19566 -1.26502,0.37364 -2.51402,0.80153 -3.79641,1.11526 z" />
    <path
       style="fill:#aaccff;stroke-width:0.264583"
       id="path25"
       d="m 141.51757,168.1752 c 2.13423,-0.49012 4.25854,-1.02692 6.39863,-1.49418 1.63375,-0.27814 3.2597,-0.56674 4.88677,-0.88072 1.11969,-0.29289 2.23091,-0.0672 3.35177,0.0768 0.88827,0.13124 1.7686,0.23437 2.61677,-0.1098 0.66258,-0.35213 1.31914,-0.75238 1.94641,-1.17441 0,0 -3.31699,-2.12805 -3.31699,-2.12805 v 0 c -0.61372,0.38926 -1.23101,0.80296 -1.89713,1.08906 -0.82365,0.22068 -1.65882,0.0849 -2.49244,-0.0216 -1.14526,-0.1427 -2.27833,-0.27835 -3.4136,0.0346 -1.60519,0.33231 -3.21881,0.60394 -4.82398,0.93565 -2.16466,0.50179 -4.31895,1.05453 -6.51298,1.41835 z" />
    <path
       style="fill:#aaccff;stroke-width:0.264583"
       id="path26"
       d="m 173.37118,140.15388 c 0.81573,1.15082 1.74423,2.23322 2.70674,3.26574 0.85689,0.88028 1.77072,1.71039 2.77349,2.42167 2.88089,1.74416 4.06026,2.69865 7.06417,3.04538 1.82567,0.14813 3.65907,0.15118 5.48952,0.16361 0.88193,0.005 1.76387,0.007 2.64581,0.008 0,0 -3.17264,-2.30347 -3.17264,-2.30347 v 0 c -0.86928,0.007 -1.73857,0.0155 -2.60789,0.0153 -1.8231,-0.005 -3.65186,-0.008 -5.4661,-0.20837 -0.6412,-0.0982 -0.87198,-0.11303 -1.48409,-0.28242 -1.45017,-0.40129 -4.48913,-2.29925 1.18144,0.98963 -1.04306,-0.65097 -1.94803,-1.49684 -2.82769,-2.34936 -0.95958,-0.99139 -1.82903,-2.06038 -2.69865,-3.13088 z" />
    <path
       style="fill:#aaccff;stroke-width:0.264583"
       id="path27"
       d="m 132.95164,236.15574 c 1.47729,-0.85038 2.84513,-1.86344 4.16143,-2.94187 1.19798,-0.90157 2.36636,-1.8405 3.65334,-2.61382 0.5696,-0.22232 1.0779,-0.60106 1.66478,-0.78328 0.51858,-0.16102 1.09105,-0.13971 1.62602,-0.14323 1.23224,-0.0507 2.42874,0.20175 3.64014,0.3743 1.48622,0.35215 2.99028,0.58809 4.47359,0.95086 0.74222,0.13352 1.46006,0.38795 2.10152,0.78171 0,0 -3.06332,-2.46374 -3.06332,-2.46374 v 0 c -0.68303,-0.31332 -1.39489,-0.54908 -2.13668,-0.6825 -1.48852,-0.34966 -2.99909,-0.58584 -4.49094,-0.92186 -1.22778,-0.19383 -2.4522,-0.39719 -3.70156,-0.33316 -1.35357,0.0685 -2.22544,0.41914 -3.39254,1.10492 -1.27842,0.80773 -2.46234,1.7454 -3.65341,2.67503 -1.31246,1.07118 -2.67645,2.087 -4.19497,2.85209 z" />
    <path
       style="fill:#aaccff;stroke-width:0.264583"
       id="path28"
       d="m 20.758345,215.12494 c 3.597231,1.01845 7.213571,1.9408 10.864747,2.74351 4.412433,1.07486 8.888045,1.7954 13.408504,2.19657 5.073216,0.37605 10.158275,0.39528 15.239471,0.23475 3.638409,0.0103 7.224069,-0.56282 10.782538,-1.25399 2.480799,-0.51296 4.93882,-1.11712 7.395757,-1.73093 1.949643,-0.44596 3.902713,-0.86955 5.858814,-1.28689 0.818002,-0.1754 1.646836,-0.28416 2.47636,-0.38558 0,0 -3.175339,-2.24378 -3.175339,-2.24378 v 0 c -0.828209,0.11798 -1.65536,0.24378 -2.472433,0.42644 -1.952593,0.42451 -3.904911,0.84405 -5.84772,1.31168 -2.437993,0.62924 -4.88229,1.22891 -7.348765,1.73892 -3.503697,0.70921 -7.036991,1.27311 -10.623642,1.29238 -5.075151,0.17276 -10.155992,0.12953 -15.22094,-0.27773 -4.513582,-0.43486 -8.982493,-1.17736 -13.392774,-2.24245 -3.721527,-0.83297 -7.403199,-1.80336 -11.058807,-2.89099 z" />
    <path
       style="fill:#aaccff;stroke-width:0.264583"
       id="path29"
       d="m 24.46235,165.7212 c 2.693546,-0.12055 5.382157,0.0771 8.07183,0.1957 5.437176,0.17972 10.862394,0.59834 16.293994,0.89128 5.33329,0.36746 10.667391,0.71961 16.007164,0.97829 1.962444,0.0837 1.029282,0.0474 2.799413,0.11103 0,0 -3.084197,-2.25374 -3.084197,-2.25374 v 0 c -1.721115,-0.032 -0.813499,-0.0122 -2.722806,-0.0613 -5.286986,-0.17684 -10.567006,-0.49437 -15.843774,-0.86505 -5.484545,-0.31767 -10.960907,-0.77012 -16.450209,-1.00305 -2.752831,-0.14985 -5.503376,-0.32746 -8.261793,-0.31106 z" />
    <path
       style="fill:#aaccff;stroke-width:0.264583"
       id="path30"
       d="m 4.5632068,228.79586 c 2.2169903,-0.0957 4.4125808,-0.47624 6.6167232,-0.72483 2.351857,-0.30818 4.679959,-0.74809 7.017395,-1.14325 1.686013,-0.27428 3.393377,-0.34755 5.098198,-0.38314 1.229368,-0.017 2.458895,-0.009 3.68832,-0.004 0.71954,0.002 1.439082,0.004 2.158622,0.006 0,0 -3.175217,-2.30768 -3.175217,-2.30768 v 0 c -0.717517,2.2e-4 -1.435032,-7.9e-4 -2.152548,-0.003 -1.224945,-0.002 -2.450121,-0.005 -3.674741,0.0283 -1.707163,0.0572 -3.416131,0.15355 -5.101247,0.45064 -2.311417,0.42057 -4.619764,0.8499 -6.949345,1.16265 -2.2331058,0.25332 -4.4718882,0.62099 -6.7239262,0.59419 z" />
    <path
       style="fill:#aaccff;stroke-width:0.264583"
       id="path31"
       d="m 6.6157143,171.94192 c 1.0041523,-0.39268 2.0761526,-0.53099 3.142252,-0.6294 1.1137617,-0.049 2.2403527,-0.15949 3.3498207,-0.0184 0.147177,0.0488 0.294825,0.0963 0.441531,0.14649 0.533456,0.18264 0.315518,0.0773 0.764099,0.37964 -1.003124,-0.56507 -1.986553,-1.16662 -3.009371,-1.69521 -0.130372,-0.0674 0.218517,0.19657 0.3181,0.30437 0.113035,0.12235 0.212457,0.25661 0.318686,0.38492 0.64792,1.10318 1.506556,2.01095 2.495129,2.81182 2.58316,1.87438 5.404815,3.36935 8.357907,4.55691 0.801781,0.36181 1.66729,0.52165 2.504805,0.76583 0.596009,0.17377 1.173522,0.40342 1.771848,0.57353 0.73896,0.22005 1.514562,0.18595 2.260025,0.36751 0.575485,0.14017 0.881933,0.26788 1.450499,0.47107 1.516494,0.46827 2.900876,1.26578 4.406688,1.75565 1.621296,0.65915 3.237238,1.27237 4.947463,1.65376 2.173028,0.59364 4.409715,0.83289 6.649055,0.99369 1.3906,0.0664 0.69618,0.0397 2.083256,0.0803 0,0 -3.106836,-2.2724 -3.106836,-2.2724 v 0 c -1.379521,-0.0475 -0.689533,-0.0175 -2.06996,-0.09 -2.231747,-0.16553 -4.452088,-0.45021 -6.615416,-1.04538 -1.704113,-0.42828 -3.318743,-1.08568 -4.957842,-1.71145 -1.479108,-0.54782 -2.887401,-1.27787 -4.39773,-1.74684 -0.648409,-0.21394 -0.860205,-0.30593 -1.510394,-0.44053 -0.743819,-0.15399 -1.515341,-0.16541 -2.241723,-0.408 -1.407061,-0.42666 -2.828785,-0.81106 -4.204228,-1.33237 -0.554262,-0.22755 -1.246293,-0.50355 -1.790148,-0.7587 -0.301561,-0.14148 -1.17391,-0.62721 -0.893707,-0.44709 4.902217,3.15121 2.062448,1.13312 0.963621,0.47656 -0.994202,-0.74194 -1.909054,-1.59432 -2.492925,-2.70711 -0.01584,-0.0214 -0.547999,-0.74889 -0.591165,-0.77701 -1.614409,-1.05129 -3.108415,-2.28622 -5.0030984,-2.62466 -1.128662,-0.0674 -2.2623981,-0.004 -3.3886145,0.0843 -1.1015295,0.12305 -2.1990936,0.30366 -3.2417726,0.69497 z" />
    <path
       style="fill:#aaccff;stroke-width:0.264583"
       id="path32"
       d="m 9.9850076,152.36514 c 1.9830914,-0.242 3.8566214,-0.95266 5.6864034,-1.72039 1.599247,-0.79112 3.152286,-1.67315 4.711098,-2.54057 0.856159,-0.60718 1.714835,-1.21002 2.638468,-1.71072 1.154514,-0.58381 2.387177,-1.0293 3.628758,-1.39269 1.260735,-0.3213 2.376046,-0.40833 3.656804,-0.19953 0.665395,0.1149 0.350591,0.0249 0.940676,0.25664 0.137543,0.054 0.539874,0.23712 0.412689,0.16189 -5.31713,-3.14518 -3.451199,-2.18798 -2.459485,-1.21102 0.707525,0.85874 1.510456,1.62939 2.376419,2.3257 2.1694,1.49745 4.485883,2.89535 6.966111,3.82422 0,0 -3.058469,-2.4009 -3.058469,-2.4009 v 0 c -0.71056,-0.28886 -0.741329,-0.28495 -1.44266,-0.63946 -0.255873,-0.12934 -1.003599,-0.55409 -0.759386,-0.4039 3.713271,2.28374 3.142965,1.91311 1.905916,1.0588 -0.877393,-0.62769 -1.692653,-1.39521 -2.344372,-2.25672 -0.09215,-0.0923 -0.188876,-0.18016 -0.276448,-0.27677 -0.09279,-0.10236 -0.146076,-0.24755 -0.264022,-0.3195 -1.797555,-1.09648 -3.163798,-2.20515 -5.137724,-2.46625 -1.258583,-0.13726 -2.525005,0.001 -3.743959,0.34455 -1.257802,0.39888 -2.510696,0.8493 -3.685161,1.45399 -0.913721,0.51764 -1.779358,1.10711 -2.630246,1.72201 -1.515937,0.88865 -3.036528,1.77977 -4.620485,2.54177 -1.84198,0.75307 -3.7305383,1.42055 -5.7293492,1.58621 z" />
    <path
       style="fill:#374845;stroke-width:0.264583"
       id="path33"
       d="m 62.010763,145.09818 c 1.174657,-0.47163 2.354067,-0.92509 3.55786,-1.31941 1.54364,-0.62227 3.167962,-0.94087 4.813723,-1.13136 0.570651,-0.0694 1.135422,-0.0948 1.707819,-0.0577 0,0 -3.175008,-2.31803 -3.175008,-2.31803 v 0 c -0.572902,0.0101 -1.14274,0.0487 -1.710983,0.12771 -1.656546,0.23091 -3.284091,0.59507 -4.84931,1.19747 -1.201968,0.39952 -2.379953,0.86478 -3.588083,1.24155 z" />
    <path
       style="fill:#374845;stroke-width:0.264583"
       id="path35"
       d="m 9.2519308,266.63361 c 1.3069222,-1.1658 2.7394342,-2.1843 4.1716792,-3.1893 1.369559,-0.95883 2.788464,-1.83614 4.270598,-2.60867 1.360149,-0.77222 2.794667,-1.40419 4.235859,-2.00759 1.17008,-0.51868 2.40763,-0.81881 3.620681,-1.20487 1.032362,-0.22912 1.983571,-0.6899 3.007702,-0.94452 0.805434,-0.33188 1.638816,-0.57438 2.37463,-1.05025 0.709872,-0.39943 1.279784,-0.96548 1.744514,-1.62835 0,0 -3.388563,-2.00033 -3.388563,-2.00033 v 0 c -0.44712,0.61299 -1.006645,1.11537 -1.669537,1.48978 -0.722961,0.41898 -1.517952,0.67442 -2.298699,0.96357 -1.01261,0.28851 -1.975567,0.72384 -3.003523,0.96507 -1.22853,0.36391 -2.447695,0.73799 -3.625467,1.25122 -1.439955,0.62661 -2.881265,1.25812 -4.247469,2.03651 -1.491581,0.78316 -2.898964,1.70533 -4.285619,2.66057 -1.4495611,1.03285 -2.8826884,2.09221 -4.2714694,3.20512 z" />
    <path
       style="fill:#374845;stroke-width:0.264583"
       id="path36"
       d="m 54.942988,263.81568 c 2.094757,-2.37816 4.488921,-4.45195 6.901593,-6.49635 2.666822,-2.22729 5.474229,-4.27758 8.511971,-5.96775 1.131826,-0.56879 2.406909,-1.19506 3.686929,-0.78205 0,0 -3.138792,-2.38134 -3.138792,-2.38134 v 0 c -1.367753,-0.14949 -2.585331,0.40955 -3.753263,1.08145 -2.988344,1.78019 -5.757928,3.87974 -8.437591,6.09432 -2.449081,2.05278 -4.859382,4.14469 -7.134405,6.39053 z" />
    <path
       style="fill:#374845;stroke-width:0.264583"
       id="path37"
       d="m 117.48765,254.07464 c 1.37015,1.14114 2.79269,2.22637 4.2165,3.30142 1.02716,0.85465 2.0971,1.65028 3.24006,2.34254 1.66904,1.10032 3.39728,2.08409 5.144,3.06619 0.63876,0.26945 0.33603,0.11655 0.91059,0.45395 0.87312,0.52452 1.8378,0.63435 2.83148,0.6882 1.01002,0.0342 2.02064,0.0411 3.03112,0.0473 0,0 -3.14748,-2.28965 -3.14748,-2.28965 v 0 c -1.00967,-0.006 -2.02043,-0.008 -3.02811,-0.0802 -0.97679,-0.10063 -1.90048,-0.30223 -2.74557,-0.83165 -1.22626,-0.62796 -3.36308,-1.80674 1.99131,1.22706 1.36991,0.77619 -2.68059,-1.56777 -1.33399,-0.87863 -1.17977,-0.6503 -2.26939,-1.44917 -3.29801,-2.31774 -1.41807,-1.03129 -2.78058,-2.14355 -4.16512,-3.21832 z" />
    <path
       style="fill:#374845;stroke-width:0.264583"
       id="path38"
       d="m 157.2515,262.36397 c 2.25038,-0.83522 4.48676,-1.69763 6.78455,-2.39498 2.26744,-0.62477 4.48883,-1.41448 6.77547,-1.96827 0.22423,-0.045 0.44846,-0.09 0.67269,-0.13502 0,0 -3.20401,-2.22419 -3.20401,-2.22419 v 0 c -0.22191,0.0524 -0.44382,0.10485 -0.66574,0.15728 -2.25218,0.61423 -4.44725,1.42022 -6.69795,2.04179 -2.34181,0.71663 -4.63767,1.5614 -6.95312,2.35731 z" />
    <path
       style="fill:#374845;stroke-width:0.264583"
       id="path39"
       d="m 191.77426,254.00568 c 1.15404,0.94559 2.26459,1.9435 3.41349,2.89499 0.97381,0.83313 1.97273,1.62697 2.90437,2.50753 1.4661,1.40481 3.19589,2.18636 5.02194,3.19309 0.31551,0.17394 0.43445,0.13955 0.76862,0.14744 0.4234,-0.19181 0.23499,-0.0618 0.56496,-0.39043 0,0 -3.36379,-2.09194 -3.36379,-2.09194 v 0 c -0.21216,0.1448 -0.0915,0.10053 -0.36711,0.11831 -1.2587,-0.33264 -3.24942,-1.73222 2.28993,1.48882 0.14411,0.0838 -0.28865,-0.16751 -0.42585,-0.2622 -0.38273,-0.26417 -0.51621,-0.40519 -0.86487,-0.71886 -0.5836,-0.52683 -0.29493,-0.2489 -0.86381,-0.83605 -0.65613,-0.60498 -1.4336,-1.06889 -2.06091,-1.70762 -1.1498,-0.90581 -2.19652,-1.935 -3.35844,-2.82747 z" />
    <path
       style="fill:#374845;stroke-width:0.264583"
       id="path40"
       d="m 92.971047,260.37608 c 0.931815,-0.8271 2.050212,-1.39416 3.198278,-1.85848 1.158328,-0.56252 2.410778,-0.8661 3.639087,-1.23068 1.155358,-0.23732 2.304908,-0.47784 3.459028,-0.72672 0.97244,-0.19778 1.88963,-0.55558 2.87454,-0.71405 0.47197,-0.0673 0.948,-0.0915 1.42353,-0.116 0,0 -3.19575,-2.29149 -3.19575,-2.29149 v 0 c -0.4836,0.0356 -0.96773,0.0712 -1.44619,0.15416 -0.97669,0.18781 -1.89925,0.54922 -2.87548,0.73402 -1.156234,0.26326 -2.322054,0.46261 -3.470539,0.75382 -1.233982,0.37505 -2.486731,0.6996 -3.649289,1.27336 -1.184535,0.51389 -2.344629,1.11222 -3.333687,1.95295 z" />
    <path
       style="fill:#374845;stroke-width:0.264583"
       id="path41"
       d="m 4.1001852,269.59187 c 1.0202918,-0.17095 1.9808319,-0.55187 2.9897196,-0.77513 1.097878,-0.31326 2.1728901,-0.69813 3.2728622,-1.00311 1.122144,-0.19534 2.211892,-0.52322 3.334315,-0.71959 1.092635,-0.16806 2.199635,-0.18949 3.302737,-0.205 1.102099,-0.009 2.204253,-0.004 3.306372,-0.003 1.395296,-0.24686 2.814619,-0.31745 4.209452,-0.55597 0.730452,-0.0955 1.454628,-0.29925 2.191692,-0.3482 0.54328,-0.0361 1.103307,0.0565 1.641337,0.11827 1.127758,0.15092 2.265307,0.17741 3.401124,0.20349 1.218448,-0.0699 2.39703,0.10007 3.591835,0.30425 1.279499,0.2136 2.581251,0.22886 3.875016,0.25799 1.185759,0.0135 2.359655,-0.03 3.529552,0.17593 0.830585,0.35403 1.681316,0.63965 2.514121,0.98634 0.872384,0.35827 1.813058,0.44733 2.723166,0.64836 0.0026,0 1.096772,0.31641 1.12621,0.32491 0.966993,0.22817 1.91725,0.51419 2.857584,0.83571 1.299612,0.28662 2.589221,0.60947 3.888854,0.89797 1.101352,0.28331 2.251922,0.20611 3.359137,0.42021 1.062667,0.24508 2.145834,0.35996 3.231761,0.43397 1.00739,0.13242 1.981477,-0.15981 2.969461,-0.31239 0.697039,-0.13174 1.418029,-0.0725 2.110025,-0.23398 0.416396,-0.0971 0.822762,-0.23336 1.23662,-0.34078 1.691648,-0.57716 3.39878,-1.09895 5.112213,-1.60851 1.353233,-0.38322 2.748746,-0.56798 4.131847,-0.80674 1.626336,-0.25506 3.271602,-0.3329 4.914834,-0.37727 1.526593,-0.0275 3.053525,-0.0273 4.580316,-0.0314 1.808041,0.0477 3.629734,-0.10861 5.429988,0.0897 1.65858,0.30808 3.342241,0.36357 5.02402,0.40622 2.280484,0.0441 4.561474,0.0557 6.842304,0.0706 2.0289,0.033 4.03688,-0.3692 6.01785,-0.76615 1.95934,-0.48178 3.9783,-0.58661 5.96422,-0.89056 1.41049,-0.1178 2.68282,-0.72806 4.00317,-1.18147 1.90603,-0.7035 3.9106,-1.04748 5.88253,-1.50684 1.36285,-0.3666 2.75876,-0.45668 4.1613,-0.50667 1.76468,-0.0414 3.52997,-0.0287 5.29492,-0.0187 1.49433,-0.0687 2.96695,0.0986 4.44715,0.27599 1.32182,0.16915 2.65207,0.244 3.98307,0.28718 1.19226,0.13879 2.33945,0.46053 3.5048,0.73083 1.32065,0.25929 2.66464,0.36232 4.00143,0.50863 2.14201,0.29732 4.24328,0.80995 6.37029,1.19081 2.66131,0.30261 5.30446,0.71784 7.94942,1.13694 2.8645,0.54515 5.77301,0.94428 8.58808,1.71813 0.27338,0.0804 0.54621,0.16272 0.82012,0.2413 0.2339,0.0671 0.47314,0.1166 0.70328,0.19563 0.51378,0.17637 0.99085,0.50557 1.53475,0.59661 0.19875,0.0333 0.40256,0.0193 0.60384,0.0292 2.10836,-0.0642 4.21562,-0.15216 6.32455,-0.19918 1.17555,-0.0592 2.35897,0.0451 3.52831,-0.11867 0.77869,-0.10903 1.51338,-0.2818 2.28381,-0.44566 2.72811,-0.65588 5.47445,-1.24354 8.22996,-1.77356 1.84179,-0.24865 3.61912,-0.77811 5.40289,-1.27714 1.66937,-0.34129 3.31567,-0.78803 4.99011,-1.10572 0.66436,-0.0598 0.35393,-0.0637 0.93128,-0.0116 0,0 -3.18336,-2.32237 -3.18336,-2.32237 v 0 c -0.59759,0.0286 -0.28015,-10e-4 -0.95101,0.1031 -1.66227,0.35652 -3.3063,0.79435 -4.96734,1.15608 -1.77143,0.4956 -3.55229,0.95397 -5.36655,1.26763 -2.74142,0.5769 -5.47732,1.17989 -8.21287,1.78372 -1.92306,0.35086 -3.84043,0.53062 -5.79819,0.49495 -2.11631,0.0631 -4.23629,0.17635 -6.35291,0.11237 -1.22699,-0.22108 -2.33934,-0.86378 -3.57934,-1.06862 -2.81559,-0.67339 -5.68393,-1.10967 -8.53018,-1.63013 -2.67421,-0.43566 -5.34929,-0.85505 -8.03561,-1.21017 -2.1287,-0.37983 -4.23595,-0.8747 -6.37973,-1.16963 -1.34049,-0.17174 -2.69298,-0.27877 -4.01382,-0.5736 -1.17496,-0.28442 -2.3493,-0.58388 -3.55974,-0.67393 -1.31459,-0.0421 -2.62732,-0.128 -3.93298,-0.29138 -1.49008,-0.17229 -2.97825,-0.31493 -4.48086,-0.2451 -1.76234,0.004 -3.52491,0.005 -5.28694,0.041 -1.42564,0.0429 -2.83255,0.16245 -4.20852,0.56875 -1.9744,0.48176 -3.97775,0.85524 -5.89668,1.54173 -1.31038,0.44519 -2.60019,0.95992 -3.98849,1.10856 -1.97185,0.30645 -3.96566,0.48546 -5.91327,0.94356 -1.98284,0.36436 -3.98464,0.72776 -6.00919,0.68207 -2.270243,0.008 -4.541008,0.009 -6.810397,-0.0627 -1.693275,-0.0715 -3.378399,-0.19826 -5.054793,-0.45461 -1.808586,-0.11901 -3.625117,-0.005 -5.436524,-0.0526 -1.533675,-0.006 -3.067931,-0.018 -4.601067,0.032 -1.654463,0.0622 -3.309059,0.15867 -4.946179,0.41971 -1.393139,0.23209 -2.798397,0.41857 -4.147296,0.85551 -1.708486,0.52607 -3.413712,1.06076 -5.123939,1.57869 -1.106189,0.27262 -2.209948,0.43629 -3.345622,0.53252 -0.969357,0.15846 -1.930069,0.38029 -2.918367,0.23752 -1.079135,-0.0851 -2.147925,-0.23858 -3.208377,-0.45786 -1.110875,-0.14029 -2.239757,-0.15521 -3.331978,-0.43201 -1.294833,-0.30166 -2.597943,-0.57338 -3.87722,-0.93356 -0.951156,-0.29281 -1.892792,-0.61098 -2.866678,-0.8223 -1.271752,-0.34388 -2.593356,-0.49808 -3.819012,-1.00457 -0.850971,-0.33237 -1.694354,-0.70959 -2.583653,-0.92588 -1.171829,-0.15571 -2.35289,-0.0745 -3.531942,-0.11523 -1.290267,-0.035 -2.584656,-0.0825 -3.857728,-0.31375 -1.201187,-0.19666 -2.397754,-0.28787 -3.6167,-0.25481 -1.135603,-0.034 -2.269624,-0.0959 -3.397745,-0.23665 -1.308948,-0.11202 -2.577608,0.0604 -3.861718,0.3321 -1.394527,0.19801 -2.799577,0.33971 -4.19966,0.48756 -1.103708,-0.002 -2.207502,-0.007 -3.311142,0.008 -1.11633,0.0241 -2.236542,0.0615 -3.338309,0.25921 -1.1248687,0.21976 -2.2326222,0.51882 -3.3545765,0.75136 -1.0904336,0.32311 -2.1674338,0.6894 -3.2666479,0.98373 -1.0114901,0.24878 -1.9923083,0.6101 -3.02705063,0.76046 z" />
    <path
       style="fill:#374845;stroke-width:0.264583"
       id="path42"
       d="m 148.27316,246.40292 c -0.91637,0.63384 -1.87451,1.21147 -2.85975,1.73255 -0.88054,0.64242 -1.91505,1.00766 -2.8471,1.55741 -0.79889,0.42457 -1.65264,0.70036 -2.4443,1.1437 -0.86533,0.32918 -1.65207,0.78301 -2.43423,1.27086 -0.61826,0.50032 -1.24225,0.9909 -1.71378,1.63729 -0.52624,0.52955 -0.7981,1.19161 -0.96024,1.9064 -0.0494,0.70746 -0.179,1.38123 -0.34799,2.06822 -0.18583,0.82806 -0.28122,1.67065 -0.20415,2.51652 0.50513,2.27036 2.88498,2.85679 4.75665,3.93987 0.7283,0.21625 1.51869,0.39219 2.25149,0.12756 0.29647,-0.16956 0.55298,-0.35534 0.79891,-0.59045 0,0 -3.36041,-2.08379 -3.36041,-2.08379 v 0 c -0.21488,0.17895 -0.43368,0.34184 -0.70233,0.43387 -0.69926,0.11651 -1.4242,-0.0635 -2.05992,-0.35612 1.0033,0.59246 2.00452,1.18845 3.0099,1.77739 0.11326,0.0663 -0.2309,-0.12755 -0.33342,-0.20953 -0.3939,-0.31498 -0.65437,-0.82674 -0.8259,-1.28652 -0.10615,-0.80543 -0.0513,-1.60011 0.1391,-2.39306 0.17319,-0.69086 0.3487,-1.3592 0.35995,-2.07733 0.13149,-0.67342 0.38381,-1.26544 0.87461,-1.76195 0.44541,-0.6007 1.04391,-1.05773 1.62901,-1.51605 0.77034,-0.4904 1.57678,-0.88995 2.41603,-1.24962 0.80503,-0.41137 1.65914,-0.70807 2.44355,-1.15832 0.9386,-0.52546 1.94604,-0.92823 2.82654,-1.55749 0.9782,-0.53488 1.92526,-1.12104 2.88724,-1.68382 z" />
    <path
       style="fill:#374845;stroke-width:0.264583"
       id="path43"
       d="m 152.78043,249.80092 c 0.043,-0.47522 0.106,-0.94538 0.19142,-1.41456 0,0 -3.46856,-1.8486 -3.46856,-1.8486 v 0 c -0.0896,0.47025 -0.15218,0.94174 -0.22218,1.41519 z" />
    <path
       style="fill:#374845;stroke-width:0.264583"
       id="path44"
       d="m 37.659736,244.90689 c 0.674195,0.81714 1.380251,1.59731 2.146374,2.3287 0.860861,0.86298 1.735989,1.70848 2.630259,2.53749 0.888828,0.85306 1.835214,1.64251 2.64232,2.57592 0.565968,0.7369 0.928336,1.59498 1.160031,2.48854 0.287147,0.92522 0.524277,1.85988 0.657964,2.8196 0.207435,0.89548 0.425701,1.78478 0.550616,2.69649 0.07159,0.84755 0.2628,1.67624 0.507156,2.48871 0.233754,0.90162 0.453723,1.80642 0.676158,2.71127 0.274249,0.77528 0.562065,1.53786 0.722276,2.34662 0.07916,0.44124 0.09988,0.88913 0.117274,1.33606 0,0 3.526496,1.78218 3.526496,1.78218 v 0 c -0.01267,-0.46447 -0.0273,-0.9299 -0.09488,-1.39038 -0.139312,-0.82061 -0.37523,-1.61571 -0.728912,-2.37133 -0.205192,-0.9157 -0.462592,-1.81695 -0.666136,-2.73309 -0.238225,-0.79467 -0.459242,-1.59669 -0.526425,-2.42755 -0.114615,-0.91283 -0.300226,-1.81278 -0.554308,-2.69749 -0.116496,-0.97362 -0.334213,-1.92804 -0.646017,-2.85859 -0.201366,-0.94763 -0.54914,-1.84881 -1.093044,-2.65619 -0.775922,-0.98166 -1.736378,-1.76624 -2.636777,-2.62895 -0.888883,-0.83141 -1.785585,-1.651 -2.624746,-2.53127 -0.757835,-0.71454 -1.517131,-1.43541 -2.11048,-2.29484 z" />
    <path
       style="fill:#374845;stroke-width:0.264583"
       id="path45"
       d="m 52.422991,260.8245 c -0.66365,0.72471 -1.324581,1.45462 -2.180334,1.95265 -0.540671,0.50961 -1.243346,0.65298 -1.901658,0.92084 -0.538268,0.16056 -0.979062,0.49827 -1.326973,0.93053 0,0 3.390408,2.03491 3.390408,2.03491 v 0 c 0.32462,-0.37531 0.74586,-0.61248 1.219936,-0.75874 0.689483,-0.24631 1.353153,-0.51914 1.924536,-0.99508 0.842987,-0.5527 1.507448,-1.29557 2.231205,-1.99011 z" />
    <path
       style="fill:#374845;stroke-width:0.264583"
       id="path46"
       d="m 73.915243,250.66162 c -0.656151,-0.70297 -1.110242,-1.53826 -1.560288,-2.37873 -0.326768,-0.69825 -0.636072,-1.39383 -0.805508,-2.14773 0,0 -3.551343,-1.72105 -3.551343,-1.72105 v 0 c 0.144536,0.79621 0.433657,1.51829 0.768532,2.25081 0.42349,0.8513 0.864008,1.72221 1.518968,2.42135 z" />
    <path
       style="fill:#374845;stroke-width:0.264583"
       id="path50"
       d="m 21.272295,99.386066 c 0.303716,1.298924 0.776478,2.553644 1.085526,3.851054 0.435331,1.82755 0.0877,1.10471 0.565833,2.67071 0.832285,2.72592 0.06835,-0.31041 0.70887,2.39691 0.460795,0.74686 0.388632,1.6572 0.871819,2.39137 0.133707,0.20316 0.337074,0.35155 0.48951,0.54106 0.250261,0.31114 0.460852,0.65232 0.700162,0.97196 0.160351,0.17674 0.320703,0.35348 0.481054,0.53022 0.192584,0.28142 0.354609,0.5864 0.577751,0.84426 0.270957,0.31312 0.609814,0.5611 0.896741,0.85965 0.998678,1.03915 1.895144,2.13587 2.722594,3.31295 0.491967,1.27344 1.44761,2.27591 2.103456,3.45328 0.406596,0.72992 0.250304,0.9553 0.989121,1.21888 0.423612,0.62334 0.531731,0.36128 1.059411,0.56615 0.126259,0.049 0.21228,0.16885 0.325371,0.24338 0.410099,0.27027 0.31854,0.19976 0.822179,0.29266 0.247653,-0.0529 1.035749,0.0174 1.249802,-0.13114 0.08572,-0.0595 0.0901,-0.18823 0.135144,-0.28234 0,0 -7.94e-4,-5.3e-4 -7.94e-4,-5.3e-4 v 0 c -0.04503,0.0941 -0.04939,0.2228 -0.135091,0.28226 -0.214087,0.14853 -1.002099,0.0782 -1.24978,0.13111 -0.502926,-0.0921 -0.410364,-0.0215 -0.820457,-0.29169 -0.113649,-0.0749 -0.200229,-0.19508 -0.327097,-0.24434 -0.526214,-0.20431 -0.63523,0.0571 -1.059399,-0.56617 -0.737346,-0.26229 -0.581867,-0.48981 -0.987423,-1.21787 -0.655838,-1.17737 -1.611508,-2.17983 -2.103453,-3.45328 -0.827445,-1.17709 -1.723903,-2.27383 -2.722586,-3.31297 -0.286928,-0.29854 -0.625793,-0.54651 -0.89675,-0.85962 -0.223144,-0.25787 -0.385162,-0.56285 -0.577744,-0.84428 -0.160352,-0.17674 -0.320704,-0.35347 -0.481057,-0.53021 -0.239313,-0.31964 -0.449892,-0.66083 -0.700159,-0.97197 -0.152435,-0.1895 -0.355811,-0.33788 -0.489522,-0.54103 -0.48321,-0.73417 -0.41101,-1.6445 -0.871829,-2.39136 -0.640467,-2.70717 0.123374,0.32883 -0.708869,-2.3969 -0.478154,-1.56604 -0.130495,-0.84313 -0.565834,-2.67073 -0.309047,-1.29741 -0.78182,-2.55213 -1.085516,-3.851061 z" />
    <path
       style="fill:#374845;stroke-width:0.264583"
       id="path55"
       d="m 21.765239,106.25446 c 0.66427,-0.53324 1.982853,-0.70047 2.524084,-1.41094 0.06111,-0.0802 0.326327,-0.93841 0.367425,-1.11226 0.816802,-1.33086 -0.327667,0.58026 0.514002,-1.00452 0.111615,-0.21016 0.266084,-0.39564 0.377497,-0.60591 0.103083,-0.19454 0.141379,-0.42265 0.264289,-0.60532 0.07933,-0.1179 0.226832,-0.17273 0.327033,-0.27349 0.08069,-0.0811 0.141874,-0.1796 0.212811,-0.2694 -0.05388,-0.30479 0.164706,-0.41633 0.240843,-0.66711 0.02487,-0.0819 -0.0088,-0.18444 0.04202,-0.25334 0.129726,-0.175955 0.594482,-0.118723 0.702855,-0.120978 0.173236,0.01701 0.346472,0.03401 0.519706,0.05101 0,0 -0.803201,-0.594172 -0.803201,-0.594172 v 0 c -0.176133,-0.0131 -0.352267,-0.02619 -0.528402,-0.03929 -0.274024,0.02671 -0.586227,-0.02519 -0.775473,0.236659 -0.04442,0.06145 -0.0066,0.152866 -0.02713,0.225859 -0.06749,0.239852 -0.300061,0.362582 -0.229576,0.648732 -0.164514,0.20587 -0.405307,0.34706 -0.551919,0.56604 -0.119793,0.17892 -0.15596,0.40247 -0.256796,0.59272 -0.113772,0.21466 -0.2712,0.40419 -0.38527,0.61869 -0.867603,1.63147 0.372137,-0.44308 -0.52384,1.02024 -0.02171,0.1013 -0.323983,1.0434 -0.330718,1.05211 -0.535349,0.69276 -1.842879,0.86781 -2.500822,1.37875 z" />
    <path
       style="fill:#374845;stroke-width:0.264583"
       id="path56"
       d="m 36.939738,119.16373 c 0.210172,-1.19301 1.001773,-2.28732 1.080561,-3.51451 0.03781,-0.58885 -0.17902,-1.21092 -0.288943,-1.78337 -0.196215,-0.61529 0.151693,-1.58627 0.03419,-2.16421 -0.03143,-0.1546 -0.471377,-1.0094 -0.542264,-1.15078 -0.13625,-0.10127 -0.278064,-0.19545 -0.408749,-0.30381 -0.09963,-0.0826 -0.18728,-0.17868 -0.280922,-0.26801 -0.395155,-0.21258 -0.825471,-0.36989 -1.185465,-0.63774 -0.188127,-0.13997 0.425661,0.22314 0.659024,0.24605 0.118464,0.0116 -0.206783,-0.12367 -0.289039,-0.20972 -0.08612,-0.0901 -0.138853,-0.207 -0.208283,-0.3105 -0.979225,-0.77098 0.303922,0.28753 -0.559398,-0.58405 -0.09799,-0.0989 -0.236944,-0.15037 -0.335957,-0.24829 -0.376645,-0.37247 -0.301871,-0.78543 -0.250391,-1.26569 0.322927,-0.30329 0.178075,-0.27667 0.710806,-0.20292 0.820007,0.11352 0.680889,0.17584 1.583187,0.54164 1.520624,0.61648 1.125085,0.43885 0.775716,0.2783 0.465378,0.24651 0.9374,0.48088 1.396132,0.73955 0.125519,0.0708 -0.52833,-0.23036 -0.395224,-0.17515 0.538716,0.22342 1.073396,0.45647 1.612133,0.67984 0.335097,0.13893 1.118224,0.47002 1.504672,0.53342 0.10233,0.0168 -0.183951,-0.0958 -0.275929,-0.14367 0.550993,0.23862 1.08035,0.53523 1.652977,0.71587 0.937162,0.29564 1.040029,0.0153 0.302085,-0.19699 -0.107196,-0.0308 0.175636,0.14006 0.275148,0.19045 1.271511,0.64392 0.812276,0.58928 1.723872,0.54237 -1.123643,-0.5267 -0.448853,-0.25601 -0.262737,-0.0415 0.07059,0.0814 0.09758,0.19206 0.146368,0.28809 0,0 0.908756,0.41676 0.908756,0.41676 v 0 c -0.04212,-0.11169 -0.05482,-0.23951 -0.126373,-0.33506 -0.346813,-0.46313 -1.331478,-0.30605 -1.476219,-0.91307 -0.747955,0.008 -0.55059,-0.0972 0.0163,0.4095 0.08379,0.0749 -0.175602,-0.14155 -0.272365,-0.19869 -0.476657,-0.28151 -1.317112,-0.95412 -2.025166,-0.77123 -0.08427,0.0218 0.0463,0.16781 0.06945,0.25171 -2.143855,-1.22353 -0.70186,-0.53693 -2.148922,-1.04538 -0.271041,-0.0952 -0.517181,-0.3025 -0.804383,-0.30947 -0.104177,-0.003 0.205737,0.33383 0.110024,0.29262 -0.473519,-0.20386 -0.868839,-0.55597 -1.316334,-0.81196 -0.115144,-0.0659 0.211437,0.16025 0.317154,0.24038 -2.121403,-1.22317 -0.867204,-0.61221 -2.489745,-1.2547 -0.541351,-0.21436 -1.469758,-0.73997 -2.121744,-0.47042 -0.122113,0.0505 -0.183073,0.1906 -0.274611,0.28589 -0.05749,0.46495 -0.175353,0.99053 0.204673,1.36514 0.09734,0.0959 0.254614,0.11498 0.351105,0.21178 0.798521,0.80111 -0.371321,-0.0153 0.561031,0.58007 0.06362,0.11733 0.0998,0.25443 0.190878,0.352 0.07968,0.0854 0.20701,0.10942 0.302556,0.17655 0.353698,0.24848 0.702914,0.50369 1.043887,0.76937 0.167519,0.13053 -0.320317,-0.30065 -0.523136,-0.36361 -0.282795,-0.0878 1.00857,0.84239 0.703169,0.54283 0.09446,0.18726 0.187982,0.37501 0.283388,0.5618 0.09268,0.18145 0.234921,0.34441 0.280871,0.54291 0.119168,0.51483 -0.232921,1.61672 -0.04467,2.18499 0.104926,0.55801 0.335537,1.17687 0.306991,1.74935 -0.06125,1.22844 -0.873546,2.32527 -1.078944,3.51633 z" />
    <path
       style="fill:#374845;stroke-width:0.264583"
       id="path57"
       d="m 59.878092,96.191373 c -1.21289,2.429558 -0.493705,0.79515 -1.367931,3.297931 -0.297301,0.851136 -0.514792,1.119526 -0.570084,1.976956 -0.01926,0.2985 0.144235,1.03752 0.19304,1.29281 0.242189,0.4498 0.04051,1.42427 0.129852,1.86682 0.0391,0.19369 0.151606,0.36511 0.23535,0.54409 0.07906,0.16898 0.133252,0.35612 0.252838,0.4993 0.09916,0.11873 0.255344,0.1747 0.383016,0.26204 1.479881,0.52824 2.773532,0.93502 4.343207,0.80889 0.136721,-0.0132 0.273444,-0.0264 0.410165,-0.0396 0,0 -0.814134,-0.57982 -0.814134,-0.57982 v 0 c -0.136239,0.0127 -0.272478,0.0254 -0.408717,0.0381 -0.80912,0.0553 -1.494163,-0.032 -2.283238,-0.21414 -0.212138,-0.049 -0.491707,-0.29994 -0.638201,-0.13889 -0.130755,0.14375 0.215513,0.32341 0.323273,0.48511 -0.134975,-0.0702 -0.301173,-0.0993 -0.404919,-0.21062 -0.126772,-0.13598 -0.169679,-0.33084 -0.25423,-0.4964 -0.08541,-0.16724 -0.214585,-0.31876 -0.255632,-0.502 -0.08962,-0.40007 0.129029,-1.48089 -0.120528,-1.88682 -0.03223,-0.16316 -0.220996,-1.03489 -0.209842,-1.26091 0.04136,-0.83806 0.271577,-1.13548 0.560142,-1.965314 0.865539,-2.48906 0.148574,-0.860065 1.362638,-3.284416 z" />
    <path
       style="fill:#374845;stroke-width:0.264583"
       id="path58"
       d="m 10.066816,122.98138 c 0.540167,-0.0923 1.080334,-0.18453 1.620501,-0.27679 0.549802,-0.0455 1.104005,-0.0534 1.649406,-0.1364 0.382541,-0.0582 0.753795,-0.1769 1.125107,-0.28577 0.478873,-0.14041 0.672085,-0.31367 1.145909,-0.22902 0.05675,-0.0853 0.113502,-0.17054 0.170253,-0.25581 0.08942,-0.0716 0.198774,-0.12374 0.268272,-0.21481 0.09565,-0.12534 0.117961,-0.29747 0.216556,-0.4205 0.10125,-0.12635 0.81074,-0.59818 0.861121,-0.63612 0.215529,-0.1623 0.421441,-0.33699 0.632161,-0.50549 0.629498,-0.46858 1.023563,-1.12014 1.281195,-1.85409 0.06588,-0.18769 0.06467,-0.39435 0.128539,-0.58273 0.125142,-0.36909 0.315318,-0.71347 0.448561,-1.07971 0.463112,-0.33704 0.194816,-0.24961 0.8202,-0.20953 0,0 -0.807868,-0.58793 -0.807868,-0.58793 v 0 c -0.680413,0.0302 -0.38986,-0.087 -0.886075,0.31331 -0.13376,0.37085 -0.328555,0.71828 -0.455039,1.09168 -0.06145,0.18141 -0.05436,0.38158 -0.117053,0.56257 -0.250506,0.72312 -0.638269,1.35562 -1.25753,1.8154 -0.309524,0.24587 -1.283468,0.88719 -1.51619,1.17734 -0.09014,0.11238 -0.108164,0.27097 -0.195877,0.38525 -0.07542,0.0983 -0.189241,0.15987 -0.283862,0.2398 -0.03638,0.0546 -0.07277,0.10923 -0.109149,0.16384 -0.470551,-0.0325 -0.697566,0.12756 -1.164653,0.26056 -1.479857,0.42139 -2.906659,0.32848 -4.395867,0.69986 z" />
    <path
       style="fill:#374845;stroke-width:0.264583"
       id="path59"
       d="m 23.884155,125.58675 c 2.410231,-0.20453 4.779583,0.2196 7.149676,0.56566 0.497181,0.0726 1.202547,0.27147 1.714322,0.0508 0.08024,-0.0222 0.160483,-0.0444 0.240724,-0.0666 0,0 -0.82523,-0.56494 -0.82523,-0.56494 v 0 c -0.08181,0.0244 -0.163621,0.0488 -0.245433,0.0732 -0.507289,0.16105 -1.210009,-0.0213 -1.679779,-0.0891 -2.372976,-0.34255 -4.747177,-0.74768 -7.158579,-0.55338 z" />
    <path
       style="fill:#374845;stroke-width:0.264583"
       id="path60"
       d="m 148.85689,114.13917 c 0.38105,2.22701 0.14487,1.09853 0.70117,3.32105 0.0934,0.37316 0.2008,0.7431 0.27959,1.11962 0.0386,0.18441 0.016,0.38072 0.072,0.56062 0.0691,0.22203 0.25085,0.39163 0.375,0.58826 0.026,0.13418 0.0688,0.26618 0.0781,0.40254 0.0125,0.18243 -0.0516,0.36968 -0.013,0.5484 0.0303,0.14025 0.13597,0.253 0.21257,0.37434 0.26728,0.42335 0.35912,0.59051 0.37293,1.10151 0.26569,0.71682 0.12964,0.3633 0.40769,1.06072 0,0 0.90665,0.41943 0.90665,0.41943 v 0 c -0.27506,-0.68951 -0.13389,-0.34708 -0.42341,-1.02732 0.002,-0.35853 0.0489,-0.50087 -0.11315,-0.82358 -0.12027,-0.23944 -0.41084,-0.38853 -0.47462,-0.64877 -0.0449,-0.18329 0.0296,-0.37713 0.0222,-0.5657 -0.006,-0.1472 -0.0409,-0.29176 -0.0614,-0.43764 -0.0577,-0.0955 -0.10814,-0.19572 -0.17312,-0.28638 -0.0667,-0.0931 -0.18337,-0.15508 -0.22086,-0.26334 -0.0629,-0.18161 -0.0297,-0.38427 -0.0686,-0.57249 -0.30691,-1.48484 -0.8647,-2.91615 -0.98046,-4.44107 z" />
    <path
       style="fill:#374845;stroke-width:0.264583"
       id="path61"
       d="m 151.65499,104.06407 c -2.89115,1.71867 0.0228,-0.0792 -2.48446,1.64763 -0.45059,0.31034 -1.17573,0.5627 -1.48509,1.06446 -0.0859,0.13928 -0.10145,0.31114 -0.15217,0.46672 -0.22284,0.25292 -0.30964,0.38896 -0.64669,0.55808 -0.16344,0.082 -0.36272,0.0789 -0.52199,0.16872 -0.13061,0.0737 -0.20842,0.217 -0.32627,0.30974 -0.0966,0.076 -0.20909,0.12919 -0.31364,0.19378 0,0 0.84057,0.54101 0.84057,0.54101 v 0 c 0.10777,-0.0698 0.22172,-0.13091 0.3233,-0.20945 0.10791,-0.0834 0.18396,-0.20848 0.30312,-0.27485 0.49101,-0.27346 0.85316,-0.21643 1.21777,-0.80648 0.0427,-0.14173 0.0501,-0.2993 0.12795,-0.4252 0.29934,-0.48433 1.04212,-0.75527 1.47476,-1.05395 2.36346,-1.63164 -0.25666,-0.019 2.47484,-1.63165 z" />
    <path
       style="fill:#374845;stroke-width:0.264583"
       id="path62"
       d="m 189.13182,108.13908 c -0.43652,0.97277 -0.57036,2.04492 -0.93979,3.03872 -0.10801,0.29055 -0.29831,0.54489 -0.41649,0.83145 -0.26867,0.65144 -0.26593,1.12662 -0.13698,1.79485 -0.26129,0.26681 -0.4574,0.45412 -0.52686,0.84888 -0.0341,0.19357 0.009,0.39656 -0.0317,0.58877 -0.094,0.44044 -0.30443,0.84772 -0.45379,1.27259 -0.0365,0.19706 -0.0286,0.40787 -0.10958,0.59119 -0.0927,0.20987 -0.37934,0.28798 -0.47831,0.49498 -0.2356,0.49276 0.0128,0.33172 -0.0752,0.85686 -0.0283,0.16901 -0.11778,0.32186 -0.17667,0.48279 -0.26099,0.73274 -0.15993,0.36688 -0.30997,1.09571 0,0 0.88095,0.47117 0.88095,0.47117 v 0 c 0.14134,-0.71622 0.0435,-0.35477 0.30246,-1.08189 0.0655,-0.17314 0.16484,-0.33703 0.19642,-0.51942 0.0818,-0.47275 -0.16694,-0.35265 0.0382,-0.78896 0.10495,-0.22321 0.40321,-0.31674 0.50385,-0.54193 0.0797,-0.17841 0.0678,-0.38492 0.10174,-0.57738 0.1524,-0.43403 0.37125,-0.84855 0.46792,-1.29829 0.0396,-0.18401 -0.009,-0.37824 0.0192,-0.5643 0.0622,-0.40816 0.31358,-0.59099 0.55064,-0.89539 -0.14331,-0.64905 -0.15801,-1.0973 0.10456,-1.73661 0.12002,-0.29223 0.31352,-0.55171 0.42352,-0.84785 0.36983,-0.99558 0.49881,-2.07113 0.94356,-3.04322 z" />
    <path
       style="fill:#374845;stroke-width:0.264583"
       id="path63"
       d="m 171.54006,118.92387 c 6.01508,-1.67163 -1.55925,0.3655 3.41117,-0.78996 0.46306,0.0324 0.79465,-0.33333 1.21143,-0.43544 0.0692,-0.017 0.14247,0.005 0.2137,0.007 0.20337,-0.0754 0.40673,-0.15087 0.61009,-0.22631 2.12758,-1.36892 -0.51226,0.29236 1.52194,-0.87787 0.22336,-0.1285 0.42044,-0.30038 0.64717,-0.42283 0.17151,-0.0926 0.38135,-0.10906 0.54206,-0.21937 0.10905,-0.0749 0.14781,-0.22096 0.239,-0.31678 0.0648,-0.068 0.14967,-0.1135 0.2245,-0.17025 0.52473,-0.34354 0.90745,-0.7599 1.24477,-1.27972 0,0 -0.86239,-0.50396 -0.86239,-0.50396 v 0 c -0.33155,0.50991 -0.71501,0.91311 -1.22861,1.25099 -0.0792,0.064 -0.1669,0.11877 -0.23755,0.19211 -0.0796,0.0827 -0.11476,0.20909 -0.21029,0.27277 -0.16628,0.11082 -0.37599,0.13943 -0.5515,0.23496 -0.22353,0.12167 -0.42071,0.28739 -0.64132,0.4143 -2.18903,1.25933 0.73734,-0.54774 -1.51524,0.86649 -0.19789,0.0667 -0.39579,0.13346 -0.59368,0.20019 -0.0778,0.007 -0.15814,7.9e-4 -0.23334,0.0219 -1.35632,0.38144 1.39453,-0.18132 -1.19612,0.42043 -4.5582,1.05876 2.06455,-0.7342 -3.42282,0.80641 z" />
    <path
       style="fill:#374845;stroke-width:0.264583"
       id="path64"
       d="m 182.62303,96.037565 c 0.16136,1.082541 0.63204,2.26453 0.35967,3.371324 0,0 0.87938,0.476073 0.87938,0.476073 v 0 c 0.29442,-1.119214 -0.17473,-2.31897 -0.33973,-3.417237 z" />
    <path
       style="fill:#374845;stroke-width:0.264583"
       id="path65"
       d="m 191.9142,124.06146 c 3.08269,-1.85615 -0.0979,0.008 2.51754,-1.4003 1.99211,-1.20028 -0.16509,0.0268 1.10047,-0.55052 0.11804,-0.0538 0.20728,-0.1657 0.33099,-0.20482 0.21639,-0.0684 0.4477,-0.0748 0.67154,-0.11217 1.096,-0.82022 1.63708,-0.63998 2.88246,-0.46241 -0.22625,-0.0967 -0.4341,-0.3166 -0.67875,-0.29023 -0.12667,0.0136 0.12588,0.22388 0.16271,0.34584 0.12257,0.40591 0.0647,0.82294 0.0179,1.23353 0,0 0.88525,0.46421 0.88525,0.46421 v 0 c 0.0458,-0.37665 0.17451,-1.36965 -0.14402,-1.6559 -0.31096,-0.27945 -0.69542,-0.46426 -1.04312,-0.69639 -1.28848,-0.18699 -1.7565,-0.29675 -2.90082,0.4894 -0.23083,0.0471 -0.46841,0.0686 -0.69249,0.14128 -0.11725,0.0381 -0.20694,0.13573 -0.31902,0.18706 -1.13384,0.51938 0.57916,-0.44621 -1.10553,0.56349 -2.61679,1.41372 0.55484,-0.43792 -2.51747,1.40021 z" />
    <path
       style="fill:#374845;stroke-width:0.264583"
       id="path66"
       d="m 179.06788,125.78629 c 1.51298,-0.002 3.02595,0.001 4.53892,0.001 0.39178,-1.1e-4 0.78355,-7e-5 1.17532,-4e-5 0,0 -0.80872,-0.58757 -0.80872,-0.58757 v 0 c -0.39181,3e-5 -0.78362,7e-5 -1.17544,-5e-5 -1.51195,-2.6e-4 -3.02391,0.003 -4.53587,0.001 z" />
    <path
       style="fill:#374845;stroke-width:0.264583"
       id="path67"
       d="m 184.03209,94.95293 c 0.003,1.541878 -0.002,3.083756 -0.002,4.625634 5.3e-4,1.011926 5.3e-4,2.023856 -1.1e-4,3.035796 0,0.004 -1.7e-4,0.56334 -6e-5,0.56369 0.15987,0.50199 1.34407,0.9699 1.4705,1.07302 0.17553,0.14317 -0.42188,-0.16512 -0.63281,-0.24767 0.64833,0.42267 -0.01,-0.0598 0.51498,0.49672 0.65417,0.69341 -0.0168,-0.21896 0.52024,0.56208 0,0 0.91473,0.40299 0.91473,0.40299 v 0 c -0.56399,-0.97381 0.19114,0.21158 -0.52022,-0.562 -0.55914,-0.60804 0.20351,-0.13508 -0.50961,-0.50878 -2.76604,-1.99454 -0.67977,-0.46261 -0.5189,-0.41518 0.0929,0.0274 -0.0943,-0.17217 -0.1628,-0.24056 -0.0504,-0.0503 -0.15469,-0.0423 -0.18514,-0.10665 -0.0803,-0.16989 0.0787,-0.39349 -6e-5,-0.56375 -5.3e-4,-1.01197 -5.3e-4,-2.02394 -1.1e-4,-3.03591 5.3e-4,-1.542411 -0.005,-3.084829 -0.002,-4.627247 z" />
    <path
       style="fill:#374845;stroke-width:0.264583"
       id="path68"
       d="m 175.10046,106.76477 c 2.03281,-2.73909 -0.23275,0.19986 1.4957,-1.77503 0.97345,-1.45541 -0.13996,0.002 0.48447,-0.47595 0.47348,-0.36221 -0.37593,-0.0161 0.32375,-0.25374 0.63537,-0.95992 -0.23696,0.26921 0.57055,-0.58254 0.109,-0.11498 0.15204,-0.28233 0.26143,-0.39694 0.0958,-0.10036 0.24574,-0.13694 0.34282,-0.23607 0.68587,-0.70033 -0.21247,-0.0686 0.54379,-0.55123 0.34031,-0.38813 0.2886,-0.83568 0.22144,-1.31302 -0.0202,-0.14341 -0.0887,-0.28299 -0.078,-0.42741 0.0112,-0.15089 0.25983,-0.59507 0.32259,-0.7157 0.0395,-0.122407 0.0791,-0.244814 0.11863,-0.367218 0,0 -0.87628,-0.481018 -0.87628,-0.481018 v 0 c -0.0367,0.117411 -0.0734,0.234825 -0.11011,0.352237 -0.072,0.138089 -0.33837,0.618529 -0.35359,0.774549 -0.0139,0.14234 0.0587,0.28005 0.0812,0.42129 0.07,0.4399 0.15091,0.85618 -0.16788,1.21748 -0.87494,0.6128 0.17343,-0.18046 -0.54524,0.55385 -0.10489,0.10718 -0.2583,0.15889 -0.36182,0.26739 -0.10117,0.10604 -0.14205,0.26015 -0.24293,0.36646 -0.77329,0.81499 -0.0416,-0.20893 -0.55895,0.56355 -0.0881,0.0451 -0.1762,0.0901 -0.26429,0.13521 -0.0186,0.0376 -0.0223,0.0876 -0.0558,0.11289 -0.0678,0.051 -0.17279,0.0434 -0.23225,0.10381 -0.11544,0.11739 -0.16574,0.2869 -0.27399,0.41094 -1.72525,1.97701 0.50249,-0.90734 -1.49515,1.77537 z" />
    <path
       style="fill:#374845;stroke-width:0.264583"
       id="path69"
       d="m 57.557063,124.50905 c 0.07151,-0.42502 0.363226,-2.3424 0.554549,-2.87465 0.382312,-1.06357 0.306141,-0.3318 0.686966,-1.03336 0.05008,-0.0923 0.03977,-0.20764 0.07997,-0.30462 0.0544,-0.13121 0.134599,-0.25018 0.201896,-0.37527 0.271267,-0.33454 0.124137,-0.77106 0.252195,-1.13783 0.08719,-0.24971 0.369954,-0.39275 0.475388,-0.63534 0.153405,-0.35295 0.101698,-0.61799 0.09366,-0.995 0.02241,-0.0336 0.40304,-0.60696 0.419918,-0.62073 0.09567,-0.0781 0.239088,-0.0726 0.343728,-0.13812 0.09863,-0.0618 0.157699,-0.17506 0.255894,-0.23754 0.283348,-0.18028 0.443516,-0.1347 0.779235,-0.1476 1.153745,0.27811 -0.07927,-0.20149 -0.169119,-0.21243 -0.111588,-0.0136 0.192635,0.12445 0.260726,0.21389 0.07451,0.0979 0.104354,0.2228 0.15653,0.3342 0,0 0.907598,0.41887 0.907598,0.41887 v 0 c -0.04539,-0.12699 -0.05995,-0.26972 -0.136174,-0.38097 -0.06297,-0.0919 -0.172423,-0.14164 -0.264681,-0.20409 -1.181912,-0.80007 -0.677444,-0.6869 -1.567267,-0.75138 -0.402447,0.0384 -0.487582,-0.007 -0.816756,0.20299 -0.08961,0.0571 -0.149563,0.15352 -0.238783,0.21126 -0.116377,0.0753 -0.267383,0.0944 -0.372714,0.18448 -0.03775,0.0323 -0.431667,0.64853 -0.449744,0.67649 0.01434,0.32773 0.07097,0.62471 -0.06299,0.93781 -0.110546,0.25838 -0.404958,0.41471 -0.499092,0.67952 -0.12605,0.35458 0.03517,0.7807 -0.234505,1.10433 -0.07162,0.1325 -0.143243,0.265 -0.214866,0.39749 -0.0195,0.0893 -0.01511,0.18743 -0.05846,0.26789 -0.395279,0.73374 -0.301747,-0.0468 -0.706075,1.07314 -0.182591,0.50575 -0.498403,2.51026 -0.564502,2.89438 z" />
    <path
       style="fill:#374845;stroke-width:0.264583"
       id="path70"
       d="m 67.507381,126.78176 c -0.165373,-1.27714 0.08929,-2.39264 0.552979,-3.55616 0.04755,-0.11932 0.07102,-0.25091 0.141039,-0.35859 0.0693,-0.10658 0.17889,-0.18067 0.268335,-0.271 0.07147,-0.12365 0.142941,-0.2473 0.21441,-0.37095 0.936244,-0.65296 -0.344662,0.28991 0.484857,-0.48908 0.07484,-0.0703 0.197001,-0.0768 0.268986,-0.15002 0.08861,-0.0901 0.112049,-0.23036 0.197049,-0.32386 0.843195,-0.92755 -0.264684,0.56773 0.489352,-0.49555 0.413665,-0.36524 0.904655,-0.0158 1.354635,-0.10202 0.09076,-0.0174 0.581985,-0.43415 0.666067,-0.4742 0.132929,-0.0633 0.283895,-0.0783 0.425842,-0.1174 0.708694,-0.004 0.643961,0.0656 -0.09126,-0.27042 0,0 0.929275,0.36862 0.929275,0.36862 v 0 c -1.299985,-0.77307 -0.706864,-0.70767 -1.663404,-0.66161 -0.148264,0.0486 -0.305054,0.0764 -0.444794,0.14583 -0.103629,0.0515 -0.484751,0.39334 -0.624215,0.41432 -0.49085,0.0739 -0.983459,-0.21738 -1.413111,0.1887 -0.616032,0.85747 0.303025,-0.36909 -0.493016,0.50189 -0.07437,0.0814 -0.09437,0.20415 -0.171852,0.28258 -0.08098,0.082 -0.207553,0.10697 -0.291259,0.18616 -0.94855,0.89731 0.737381,-0.44172 -0.488725,0.4963 -0.271941,0.4711 -0.10949,0.25203 -0.490291,0.65502 -0.06947,0.10777 -0.09212,0.23932 -0.139444,0.35848 -0.466685,1.17515 -0.739404,2.30006 -0.568955,3.59076 z" />
    <path
       style="fill:#374845;stroke-width:0.264583"
       id="path71"
       d="m 68.5074,102.71103 c 0.185796,0.54564 0.371592,1.09128 0.557387,1.63693 0.140224,0.50426 0.254474,1.01648 0.420677,1.51278 0.261969,0.78229 0.791017,1.26373 0.535877,2.06831 -0.05902,0.2535 -0.205497,0.79042 -0.16228,1.03884 0.05133,0.29504 0.466752,0.99785 0.575334,1.27026 0.213124,0.53471 0.169664,0.56019 0.188756,1.10493 -0.07862,0.52193 -0.143195,0.31269 0.06477,0.65372 0,0 0.920917,0.39017 0.920917,0.39017 v 0 c -0.287721,-0.23444 -0.1802,-0.0658 -0.09445,-0.5925 -0.01053,-0.76537 -0.140628,-1.07375 -0.477938,-1.76101 -0.0985,-0.20068 -0.246303,-0.38505 -0.291528,-0.60399 -0.04843,-0.23443 0.0974,-0.77766 0.152453,-1.01864 0.308369,-0.91967 -0.203256,-1.20463 -0.513231,-2.12236 -0.16801,-0.49742 -0.279072,-1.0123 -0.418611,-1.51845 -0.187219,-0.54168 -0.374441,-1.08336 -0.561662,-1.62504 z" />
    <path
       style="fill:#00aa44;stroke-width:0.264583"
       id="path72"
       d="m 61.489878,83.394287 c 2.741519,-1.691611 -0.02609,-0.101351 2.352151,-1.188551 0.20819,-0.09517 0.355666,-0.371424 0.584332,-0.360785 0.07498,0.0035 0.134541,0.06842 0.206481,0.08983 0.140028,0.04167 0.284689,0.0658 0.427035,0.0987 0.289165,0.02109 0.577778,0.05213 0.867497,0.0633 0.713163,0.0275 1.544775,0.01781 2.263153,5.29e-4 0.225981,-0.0054 0.451819,-0.01587 0.677662,-0.02556 0.111066,-0.0048 0.422775,0.04793 0.333041,-0.0177 -0.250642,-0.183303 -0.571264,-0.24361 -0.856895,-0.365413 0,0 0.88959,0.45771 0.88959,0.45771 v 0 c -0.281538,-0.225234 -0.530048,-0.499517 -0.844614,-0.675706 -0.09643,-0.05401 -0.220694,0.01259 -0.331123,0.01717 -0.225031,0.0093 -0.450059,0.0195 -0.67523,0.02453 -1.039021,0.02323 -2.084025,0.04169 -3.117855,-0.08475 -0.933926,-0.22279 -0.471141,-0.135245 -1.25008,0.221607 -2.27018,1.040029 0.21821,-0.39125 -2.368476,1.214665 z" />
    <ellipse
       style="fill:#00aa44;stroke-width:0.264583"
       id="path73"
       cx="108.69125"
       cy="291.1734"
       rx="102.18317"
       ry="17.998522" />
    <ellipse
       style="fill:#00aa44;stroke-width:0.264583"
       id="path74"
       cx="119.27823"
       cy="283.90823"
       rx="9.5883484"
       ry="1.6526163" />
    <ellipse
       style="fill:#00aa44;stroke-width:0.264583"
       id="path75"
       cx="26.867994"
       cy="287.46582"
       rx="27.968296"
       ry="18.374901" />
    <ellipse
       style="fill:#00aa44;stroke-width:0.264583"
       id="path76"
       cx="145.14543"
       cy="280.16461"
       rx="26.275301"
       ry="15.43163" />
    <ellipse
       style="fill:#00aa44;stroke-width:0.264583"
       id="path77"
       cx="204.74706"
       cy="285.69931"
       rx="25.775623"
       ry="18.12398" />
  </g>
</svg>
