<?xml version="1.0" encoding="UTF-8" standalone="no"?>
<!-- Created with Inkscape (http://www.inkscape.org/) -->

<svg
   width="210mm"
   height="297mm"
   viewBox="0 0 210 297"
   version="1.1"
   id="svg1"
   inkscape:version="1.3.2 (091e20ef0f, 2023-11-25)"
   sodipodi:docname="drawing.svg"
   xmlns:inkscape="http://www.inkscape.org/namespaces/inkscape"
   xmlns:sodipodi="http://sodipodi.sourceforge.net/DTD/sodipodi-0.dtd"
   xmlns="http://www.w3.org/2000/svg"
   xmlns:svg="http://www.w3.org/2000/svg">
  <sodipodi:namedview
     id="namedview1"
     pagecolor="#ffffff"
     bordercolor="#000000"
     borderopacity="0.25"
     inkscape:showpageshadow="2"
     inkscape:pageopacity="0.0"
     inkscape:pagecheckerboard="0"
     inkscape:deskcolor="#d1d1d1"
     inkscape:document-units="mm"
     inkscape:zoom="0.88610648"
     inkscape:cx="299.62539"
     inkscape:cy="349.28082"
     inkscape:window-width="1920"
     inkscape:window-height="1011"
     inkscape:window-x="0"
     inkscape:window-y="0"
     inkscape:window-maximized="1"
     inkscape:current-layer="layer1" />
  <defs
     id="defs1" />
  <g
     inkscape:label="Layer 1"
     inkscape:groupmode="layer"
     id="layer1">
    <rect
       style="fill:#05ebef;fill-opacity:1;fill-rule:evenodd;stroke-width:0.264583"
       id="rect3"
       width="209.6843"
       height="108.79206"
       x="0.3697395"
       y="0.35807583" />
    <rect
       style="fill:#2c05ef;fill-opacity:1;fill-rule:evenodd;stroke-width:0.264583"
       id="rect4"
       width="209.04512"
       height="96.87059"
       x="0.67766142"
       y="108.59727" />
    <rect
       style="fill:#000002;fill-opacity:1;fill-rule:evenodd;stroke-width:0.264583"
       id="rect5"
       width="209.98639"
       height="91.418968"
       x="0.74064541"
       y="205.35356" />
    <path
       sodipodi:type="star"
       style="fill:#000002;fill-opacity:1;fill-rule:evenodd;stroke-width:0.264583"
       id="path5"
       inkscape:flatsided="false"
       sodipodi:sides="5"
       sodipodi:cx="-72.380302"
       sodipodi:cy="34.041695"
       sodipodi:r1="8.1369448"
       sodipodi:r2="8.9943428"
       sodipodi:arg1="0.71144041"
       sodipodi:arg2="-3.067539"
       inkscape:rounded="0"
       inkscape:randomized="0"
       d="m -66.2172,39.354513 -15.132794,-5.978274 5.821405,8.168666 1.009385,-16.239531 -5.969949,8.060741 15.756629,-4.058308 -9.511037,-3.186853 8.728747,13.731358 0.09181,-10.030325 -10.361966,12.544755 z"
       inkscape:transform-center-x="0.57577763"
       inkscape:transform-center-y="-0.20876599"
       transform="translate(186.42569,14.543476)" />
    <path
       sodipodi:type="star"
       style="fill:#000002;fill-opacity:1;fill-rule:evenodd;stroke-width:0.264583"
       id="path5-5"
       inkscape:flatsided="false"
       sodipodi:sides="5"
       sodipodi:cx="-72.380302"
       sodipodi:cy="34.041695"
       sodipodi:r1="8.1369448"
       sodipodi:r2="8.9943428"
       sodipodi:arg1="0.71144041"
       sodipodi:arg2="-3.067539"
       inkscape:rounded="0"
       inkscape:randomized="0"
       d="m -66.2172,39.354513 -15.132794,-5.978274 5.821405,8.168666 1.009385,-16.239531 -5.969949,8.060741 15.756629,-4.058308 -9.511037,-3.186853 8.728747,13.731358 0.09181,-10.030325 -10.361966,12.544755 z"
       inkscape:transform-center-x="0.57577763"
       inkscape:transform-center-y="-0.20876599"
       transform="translate(241.25112,47.269731)" />
    <path
       sodipodi:type="star"
       style="fill:#000002;fill-opacity:1;fill-rule:evenodd;stroke-width:0.264583"
       id="path5-2"
       inkscape:flatsided="false"
       sodipodi:sides="5"
       sodipodi:cx="-72.380302"
       sodipodi:cy="34.041695"
       sodipodi:r1="8.1369448"
       sodipodi:r2="8.9943428"
       sodipodi:arg1="0.71144041"
       sodipodi:arg2="-3.067539"
       inkscape:rounded="0"
       inkscape:randomized="0"
       d="m -66.2172,39.354513 -15.132794,-5.978274 5.821405,8.168666 1.009385,-16.239531 -5.969949,8.060741 15.756629,-4.058308 -9.511037,-3.186853 8.728747,13.731358 0.09181,-10.030325 -10.361966,12.544755 z"
       inkscape:transform-center-x="0.57577763"
       inkscape:transform-center-y="-0.20876599"
       transform="translate(204.25268,-4.6360979)" />
    <path
       sodipodi:type="star"
       style="fill:#000002;fill-opacity:1;fill-rule:evenodd;stroke-width:0.264583"
       id="path5-7"
       inkscape:flatsided="false"
       sodipodi:sides="5"
       sodipodi:cx="-72.380302"
       sodipodi:cy="34.041695"
       sodipodi:r1="8.1369448"
       sodipodi:r2="8.9943428"
       sodipodi:arg1="0.71144041"
       sodipodi:arg2="-3.067539"
       inkscape:rounded="0"
       inkscape:randomized="0"
       d="m -66.2172,39.354513 -15.132794,-5.978274 5.821405,8.168666 1.009385,-16.239531 -5.969949,8.060741 15.756629,-4.058308 -9.511037,-3.186853 8.728747,13.731358 0.09181,-10.030325 -10.361966,12.544755 z"
       inkscape:transform-center-x="-0.85703072"
       inkscape:transform-center-y="-0.040705136"
       transform="rotate(30.093061,-67.965986,377.83903)" />
    <path
       sodipodi:type="star"
       style="fill:#000002;fill-opacity:1;fill-rule:evenodd;stroke-width:0.264583"
       id="path5-6"
       inkscape:flatsided="false"
       sodipodi:sides="5"
       sodipodi:cx="-72.380302"
       sodipodi:cy="34.041695"
       sodipodi:r1="8.1369448"
       sodipodi:r2="8.9943428"
       sodipodi:arg1="0.71144041"
       sodipodi:arg2="-3.067539"
       inkscape:rounded="0"
       inkscape:randomized="0"
       d="m -66.2172,39.354513 -15.132794,-5.978274 5.821405,8.168666 1.009385,-16.239531 -5.969949,8.060741 15.756629,-4.058308 -9.511037,-3.186853 8.728747,13.731358 0.09181,-10.030325 -10.361966,12.544755 z"
       inkscape:transform-center-x="-0.2193167"
       inkscape:transform-center-y="0.54782513"
       transform="rotate(-99.111662,48.193155,-36.370239)" />
    <path
       sodipodi:type="star"
       style="fill:#000002;fill-opacity:1;fill-rule:evenodd;stroke-width:0.264583"
       id="path5-61"
       inkscape:flatsided="false"
       sodipodi:sides="5"
       sodipodi:cx="-72.380302"
       sodipodi:cy="34.041695"
       sodipodi:r1="8.1369448"
       sodipodi:r2="8.9943428"
       sodipodi:arg1="0.71144041"
       sodipodi:arg2="-3.067539"
       inkscape:rounded="0"
       inkscape:randomized="0"
       d="m -66.2172,39.354513 -15.132794,-5.978274 5.821405,8.168666 1.009385,-16.239531 -5.969949,8.060741 15.756629,-4.058308 -9.511037,-3.186853 8.728747,13.731358 0.09181,-10.030325 -10.361966,12.544755 z"
       inkscape:transform-center-x="0.57577763"
       inkscape:transform-center-y="-0.20876599"
       transform="translate(238.53348,-9.4415452)" />
    <path
       sodipodi:type="star"
       style="fill:#fff8b0;fill-opacity:1;fill-rule:evenodd;stroke-width:0.264583"
       id="path5-20"
       inkscape:flatsided="false"
       sodipodi:sides="5"
       sodipodi:cx="-33.345375"
       sodipodi:cy="34.643543"
       sodipodi:r1="8.1369448"
       sodipodi:r2="10.992144"
       sodipodi:arg1="0.71144041"
       sodipodi:arg2="-2.1393656"
       inkscape:rounded="0"
       inkscape:randomized="0"
       d="m -27.182273,39.956362 -12.081569,-14.575592 2.77018,16.765983 10.128801,-15.99436 -15.089365,7.815571 18.341513,4.690533 -12.09592,-11.935695 1.206876,18.89327 7.613676,-15.192236 -17.595622,6.986149 z"
       inkscape:transform-center-x="-0.95954576"
       inkscape:transform-center-y="0.15057239"
       transform="rotate(66.287374,-169.07646,190.75562)" />
    <path
       sodipodi:type="star"
       style="fill:#fff8b0;fill-opacity:1;fill-rule:evenodd;stroke-width:0.264583"
       id="path5-20-5"
       inkscape:flatsided="false"
       sodipodi:sides="5"
       sodipodi:cx="-33.345375"
       sodipodi:cy="34.643543"
       sodipodi:r1="8.1369448"
       sodipodi:r2="10.992144"
       sodipodi:arg1="0.71144041"
       sodipodi:arg2="-2.1393656"
       inkscape:rounded="0"
       inkscape:randomized="0"
       d="m -27.182273,39.956362 -12.081569,-14.575592 2.77018,16.765983 10.128801,-15.99436 -15.089365,7.815571 18.341513,4.690533 -12.09592,-11.935695 1.206876,18.89327 7.613676,-15.192236 -17.595622,6.986149 z"
       inkscape:transform-center-x="-1.0525984"
       inkscape:transform-center-y="-1.4928511"
       transform="rotate(42.808833,-231.04188,393.42202)" />
    <path
       sodipodi:type="star"
       style="fill:#fff8b0;fill-opacity:1;fill-rule:evenodd;stroke-width:0.264583"
       id="path5-20-8"
       inkscape:flatsided="false"
       sodipodi:sides="5"
       sodipodi:cx="-33.345375"
       sodipodi:cy="34.643543"
       sodipodi:r1="8.1369448"
       sodipodi:r2="10.992144"
       sodipodi:arg1="0.71144041"
       sodipodi:arg2="-2.1393656"
       inkscape:rounded="0"
       inkscape:randomized="0"
       d="m -27.182273,39.956362 -12.081569,-14.575592 2.77018,16.765983 10.128801,-15.99436 -15.089365,7.815571 18.341513,4.690533 -12.09592,-11.935695 1.206876,18.89327 7.613676,-15.192236 -17.595622,6.986149 z"
       inkscape:transform-center-x="1.1461424"
       inkscape:transform-center-y="-0.20876599"
       transform="matrix(1,0,-0.2451019,1,145.20203,194.08696)" />
    <path
       sodipodi:type="star"
       style="fill:#fff8b0;fill-opacity:1;fill-rule:evenodd;stroke-width:0.264583"
       id="path5-20-6"
       inkscape:flatsided="false"
       sodipodi:sides="5"
       sodipodi:cx="-33.345375"
       sodipodi:cy="34.643543"
       sodipodi:r1="8.1369448"
       sodipodi:r2="10.992144"
       sodipodi:arg1="0.71144041"
       sodipodi:arg2="-2.1393656"
       inkscape:rounded="0"
       inkscape:randomized="0"
       d="m -27.182273,39.956362 -12.081569,-14.575592 2.77018,16.765983 10.128801,-15.99436 -15.089365,7.815571 18.341513,4.690533 -12.09592,-11.935695 1.206876,18.89327 7.613676,-15.192236 -17.595622,6.986149 z"
       inkscape:transform-center-x="0.57577763"
       inkscape:transform-center-y="-0.20876599"
       transform="translate(115.92901,237.16803)" />
    <path
       sodipodi:type="star"
       style="fill:#fff8b0;fill-opacity:1;fill-rule:evenodd;stroke-width:0.264583"
       id="path5-20-3"
       inkscape:flatsided="false"
       sodipodi:sides="5"
       sodipodi:cx="-33.345375"
       sodipodi:cy="34.643543"
       sodipodi:r1="8.1369448"
       sodipodi:r2="10.992144"
       sodipodi:arg1="0.71144041"
       sodipodi:arg2="-2.1393656"
       inkscape:rounded="0"
       inkscape:randomized="0"
       d="m -27.182273,39.956362 -12.081569,-14.575592 2.77018,16.765983 10.128801,-15.99436 -15.089365,7.815571 18.341513,4.690533 -12.09592,-11.935695 1.206876,18.89327 7.613676,-15.192236 -17.595622,6.986149 z"
       inkscape:transform-center-x="-0.16722492"
       inkscape:transform-center-y="-1.7900539"
       transform="matrix(0.90687717,0.44144998,-0.55120759,0.83436814,202.7884,218.07466)" />
    <path
       sodipodi:type="star"
       style="fill:#000002;fill-opacity:1;fill-rule:evenodd;stroke-width:0.264583"
       id="path6"
       inkscape:flatsided="false"
       sodipodi:sides="5"
       sodipodi:cx="-124.64421"
       sodipodi:cy="32.611725"
       sodipodi:r1="25.440174"
       sodipodi:r2="40.835609"
       sodipodi:arg1="0.9596234"
       sodipodi:arg2="-1.5554377"
       inkscape:rounded="0"
       inkscape:randomized="0"
       d="m -110.04592,53.446605 -13.97114,-61.6656734 -15.93118,61.1529294 54.330222,-32.343086 -63.082902,3.745841 47.54907,41.676546 -23.0562,-58.837872 -24.94328,58.100608 48.83339,-40.109645 -62.96486,-5.768396 z"
       inkscape:transform-center-x="0.16824765"
       inkscape:transform-center-y="4.7389214"
       transform="rotate(-30.557694,-25.113358,-264.3125)" />
    <path
       sodipodi:type="star"
       style="fill:#000002;fill-opacity:1;fill-rule:evenodd;stroke-width:0.264583"
       id="path7"
       inkscape:flatsided="false"
       sodipodi:sides="5"
       sodipodi:cx="-121.58598"
       sodipodi:cy="36.849152"
       sodipodi:r1="26.857517"
       sodipodi:r2="16.731964"
       sodipodi:arg1="1.0644276"
       sodipodi:arg2="1.6927461"
       inkscape:rounded="0"
       inkscape:randomized="0"
       d="m -108.55996,60.336358 -15.06143,-6.879505 -16.27699,3.038732 1.88856,-16.450157 -7.91987,-14.541319 16.22862,-3.287251 11.38224,-12.025762 8.14129,14.418524 14.954481,7.10899 -11.197041,12.198389 z"
       inkscape:transform-center-x="-1.0096082"
       inkscape:transform-center-y="-1.5854254"
       transform="translate(283.59021,117.4547)" />
    <path
       sodipodi:type="star"
       style="fill:#000002;fill-opacity:1;fill-rule:evenodd;stroke-width:0.264583"
       id="path8"
       inkscape:flatsided="false"
       sodipodi:sides="5"
       sodipodi:cx="-121.21741"
       sodipodi:cy="39.68343"
       sodipodi:r1="41.877003"
       sodipodi:r2="62.587994"
       sodipodi:arg1="1.5851129"
       sodipodi:arg2="2.1161128"
       inkscape:rounded="0"
       inkscape:randomized="0"
       d="m -121.81692,81.556141 -31.86417,11.637719 -7.54489,-41.141223 -20.9147,-26.708374 36.79613,-19.8889541 18.93817,-28.1444019 30.286152,28.8491737 32.619135,9.3141763 -18.07826,37.718724 1.221559,33.90088 z"
       inkscape:transform-center-x="0.083740137"
       inkscape:transform-center-y="1.5854776"
       transform="matrix(0.45201818,0,0,0.41479636,103.6076,141.89156)" />
    <path
       sodipodi:type="star"
       style="fill:#fff8b0;fill-opacity:1;fill-rule:evenodd;stroke-width:0.264583"
       id="path9"
       inkscape:flatsided="false"
       sodipodi:sides="5"
       sodipodi:cx="-91.030571"
       sodipodi:cy="12.78109"
       sodipodi:r1="25.649799"
       sodipodi:r2="27.558813"
       sodipodi:arg1="0.78842066"
       sodipodi:arg2="-1.4299467"
       inkscape:rounded="0"
       inkscape:randomized="0"
       d="M -72.948326,30.972973 -87.161744,-14.504811 -102.74436,35.599928 -63.884604,8.0287558 -116.35234,8.6920236 -78.122268,37.129886 -94.966493,-12.56493 -110.19877,32.581808 -68.141341,1.2054542 -115.78547,0.66980989 Z"
       inkscape:transform-center-x="1.2162658"
       inkscape:transform-center-y="-1.2635911"
       transform="translate(196.16955,123.94088)" />
  </g>
</svg>
